<svg width="24" height="24" viewBox="0 0 24 24" fill="none" xmlns="http://www.w3.org/2000/svg">
<path d="M0.75 3.25C0.75 1.86929 1.86929 0.75 3.25 0.75H8.25C9.63071 0.75 10.75 1.86929 10.75 3.25V8.25C10.75 9.63071 9.63071 10.75 8.25 10.75H3.25C1.86929 10.75 0.75 9.63071 0.75 8.25V3.25ZM8.25 3.25H3.25V8.25H8.25V3.25ZM13.25 3.25C13.25 1.86929 14.3693 0.75 15.75 0.75H20.75C22.1307 0.75 23.25 1.86929 23.25 3.25V8.25C23.25 9.63071 22.1307 10.75 20.75 10.75H15.75C14.3693 10.75 13.25 9.63071 13.25 8.25V3.25ZM20.75 3.25H15.75V8.25H20.75V3.25ZM0.75 15.75C0.75 14.3693 1.86929 13.25 3.25 13.25H8.25C9.63071 13.25 10.75 14.3693 10.75 15.75V20.75C10.75 22.1307 9.63071 23.25 8.25 23.25H3.25C1.86929 23.25 0.75 22.1307 0.75 20.75V15.75ZM8.25 15.75H3.25V20.75H8.25V15.75ZM13.25 15.75C13.25 14.3693 14.3693 13.25 15.75 13.25H20.75C22.1307 13.25 23.25 14.3693 23.25 15.75V20.75C23.25 22.1307 22.1307 23.25 20.75 23.25H15.75C14.3693 23.25 13.25 22.1307 13.25 20.75V15.75ZM20.75 15.75H15.75V20.75H20.75V15.75Z" fill="white"/>
</svg>
