<svg width="30" height="10" viewBox="0 0 30 10" fill="none" xmlns="http://www.w3.org/2000/svg">
<path d="M26.25 1.25004C25.8358 0.835828 25.1643 0.835827 24.75 1.25004C24.3358 1.66426 24.3358 2.33583 24.75 2.75005L25.9394 3.93939L19.5 3.93939C18.9142 3.93939 18.4394 4.41427 18.4394 5.00006C18.4394 5.58585 18.9142 6.06072 19.5 6.06072L25.9394 6.06072L24.75 7.25007C24.3358 7.66428 24.3358 8.33586 24.75 8.75007C25.1642 9.16429 25.8358 9.16429 26.25 8.75007L29.2501 5.75006C29.6643 5.33584 29.6643 4.66427 29.2501 4.25005L26.25 1.25004ZM4.06062 3.93939L5.24997 2.75004C5.66418 2.33583 5.66418 1.66425 5.24997 1.25004C4.83575 0.835823 4.16418 0.835824 3.74996 1.25004L0.749949 4.25006C0.335735 4.66427 0.335735 5.33585 0.749949 5.75006L3.74996 8.75007C4.16417 9.16429 4.83575 9.16429 5.24996 8.75007C5.66418 8.33586 5.66418 7.66428 5.24996 7.25006L4.06062 6.06072L10.5 6.06072C11.0858 6.06072 11.5606 5.58585 11.5606 5.00006C11.5606 4.41427 11.0858 3.93939 10.5 3.93939L4.06062 3.93939Z" fill="white"/>
</svg>
