<svg width="26" height="25" viewBox="0 0 26 25" fill="none" xmlns="http://www.w3.org/2000/svg">
<path d="M12.0911 0.815738C12.562 0.394754 13.2718 0.394754 13.7427 0.815738L24.9302 10.8157C25.4434 11.2744 25.4896 12.0645 25.0335 12.5805C24.5774 13.0964 23.7917 13.1429 23.2786 12.6843L22.8613 12.3113V21.75C22.8613 23.1307 21.7483 24.25 20.3752 24.25H5.45856C4.08552 24.25 2.97245 23.1307 2.97245 21.75V12.3113L2.55524 12.6843C2.04213 13.1429 1.25643 13.0964 0.800326 12.5805C0.344226 12.0645 0.390444 11.2744 0.903556 10.8157L12.0911 0.815738ZM5.45856 10.0891V21.75H9.18773V15.5C9.18773 14.8096 9.74427 14.25 10.4308 14.25H15.403C16.0895 14.25 16.6461 14.8096 16.6461 15.5V21.75H20.3752V10.0891L12.9169 3.42244L5.45856 10.0891ZM14.16 21.75V16.75H11.6738V21.75H14.16Z" fill="#ffffff"/>
</svg>
