<svg width="20" height="26" viewBox="0 0 20 26" fill="none" xmlns="http://www.w3.org/2000/svg">
<path d="M6.25 12.375C6.94036 12.375 7.5 11.8154 7.5 11.125C7.5 10.4346 6.94036 9.875 6.25 9.875C5.55964 9.875 5 10.4346 5 11.125C5 11.8154 5.55964 12.375 6.25 12.375Z" fill="white"/>
<path d="M8.75 11.125C8.75 10.4346 9.30964 9.875 10 9.875H13.75C14.4404 9.875 15 10.4346 15 11.125C15 11.8154 14.4404 12.375 13.75 12.375H10C9.30964 12.375 8.75 11.8154 8.75 11.125Z" fill="white"/>
<path d="M10 13.625C9.30964 13.625 8.75 14.1846 8.75 14.875C8.75 15.5654 9.30964 16.125 10 16.125H13.75C14.4404 16.125 15 15.5654 15 14.875C15 14.1846 14.4404 13.625 13.75 13.625H10Z" fill="white"/>
<path d="M10 17.375C9.30964 17.375 8.75 17.9346 8.75 18.625C8.75 19.3154 9.30964 19.875 10 19.875H13.75C14.4404 19.875 15 19.3154 15 18.625C15 17.9346 14.4404 17.375 13.75 17.375H10Z" fill="white"/>
<path d="M7.5 14.875C7.5 15.5654 6.94036 16.125 6.25 16.125C5.55964 16.125 5 15.5654 5 14.875C5 14.1846 5.55964 13.625 6.25 13.625C6.94036 13.625 7.5 14.1846 7.5 14.875Z" fill="white"/>
<path d="M6.25 19.875C6.94036 19.875 7.5 19.3154 7.5 18.625C7.5 17.9346 6.94036 17.375 6.25 17.375C5.55964 17.375 5 17.9346 5 18.625C5 19.3154 5.55964 19.875 6.25 19.875Z" fill="white"/>
<path d="M6.25 0.5C5.55964 0.5 5 1.05964 5 1.75H2.5C1.11929 1.75 0 2.86929 0 4.25V23C0 24.3807 1.11929 25.5 2.5 25.5H17.5C18.8807 25.5 20 24.3807 20 23V4.25C20 2.86929 18.8807 1.75 17.5 1.75H15C15 1.05964 14.4404 0.5 13.75 0.5H6.25ZM15 4.25H17.5V23H2.5V4.25H5V5.5C5 6.19036 5.55964 6.75 6.25 6.75H13.75C14.4404 6.75 15 6.19036 15 5.5V4.25ZM7.5 4.25V3H12.5V4.25H7.5Z" fill="white"/>
</svg>
