<svg width="26" height="24" viewBox="0 0 26 24" fill="none" xmlns="http://www.w3.org/2000/svg">
<path d="M8.85472 0.814146C9.1113 0.728618 9.3887 0.728618 9.64529 0.814146L16.75 3.18238L22.2094 1.36257C23.8283 0.822965 25.5 2.02789 25.5 3.73428V18.5991C25.5 19.6751 24.8114 20.6305 23.7906 20.9708L17.1453 23.1859C16.8887 23.2714 16.6113 23.2714 16.3547 23.1859L9.25 20.8176L3.79057 22.6374C2.17174 23.177 0.5 21.9721 0.5 20.2657V5.40095C0.5 4.32487 1.18858 3.36953 2.20943 3.02924L8.85472 0.814146ZM10.5 18.5991L15.5 20.2657V5.40095L10.5 3.73428V18.5991ZM8 3.73428L3 5.40095V20.2657L8 18.5991V3.73428ZM18 5.40095V20.2657L23 18.5991V3.73428L18 5.40095Z" fill="white"/>
</svg>
