<svg width="24" height="24" viewBox="0 0 24 24" fill="none" xmlns="http://www.w3.org/2000/svg">
<path d="M0.75 3.25C0.75 1.86929 1.86929 0.75 3.25 0.75H20.75C22.1307 0.75 23.25 1.86929 23.25 3.25V20.75C23.25 22.1307 22.1307 23.25 20.75 23.25H3.25C1.86929 23.25 0.75 22.1307 0.75 20.75V3.25ZM20.75 3.25H3.25V20.75H20.75V3.25ZM12 5.75C12.6904 5.75 13.25 6.30964 13.25 7V17C13.25 17.6904 12.6904 18.25 12 18.25C11.3096 18.25 10.75 17.6904 10.75 17V7C10.75 6.30964 11.3096 5.75 12 5.75ZM17 8.25C17.6904 8.25 18.25 8.80964 18.25 9.5V17C18.25 17.6904 17.6904 18.25 17 18.25C16.3096 18.25 15.75 17.6904 15.75 17V9.5C15.75 8.80964 16.3096 8.25 17 8.25ZM7 10.75C7.69036 10.75 8.25 11.3096 8.25 12V17C8.25 17.6904 7.69036 18.25 7 18.25C6.30964 18.25 5.75 17.6904 5.75 17V12C5.75 11.3096 6.30964 10.75 7 10.75Z" fill="white"/>
</svg>
