<svg width="20" height="26" viewBox="0 0 20 26" fill="none" xmlns="http://www.w3.org/2000/svg">
<path d="M0 3C0 1.61929 1.11929 0.5 2.5 0.5H12.5C12.8315 0.5 13.1495 0.631696 13.3839 0.866117L19.6339 7.11612C19.8683 7.35054 20 7.66848 20 8V23C20 24.3807 18.8807 25.5 17.5 25.5H2.5C1.11929 25.5 0 24.3807 0 23V3ZM16.9822 8L12.5 3.51777V8H16.9822ZM10 3L2.5 3V23H17.5V10.5H11.25C10.5596 10.5 10 9.94036 10 9.25V3ZM5 14.25C5 13.5596 5.55964 13 6.25 13H13.75C14.4404 13 15 13.5596 15 14.25C15 14.9404 14.4404 15.5 13.75 15.5H6.25C5.55964 15.5 5 14.9404 5 14.25ZM5 19.25C5 18.5596 5.55964 18 6.25 18H13.75C14.4404 18 15 18.5596 15 19.25C15 19.9404 14.4404 20.5 13.75 20.5H6.25C5.55964 20.5 5 19.9404 5 19.25Z" fill="white"/>
</svg>
