<svg width="26" height="26" viewBox="0 0 26 26" fill="none" xmlns="http://www.w3.org/2000/svg">
<path d="M10.5 3C7.73858 3 5.5 5.23858 5.5 8C5.5 10.7614 7.73858 13 10.5 13C13.2614 13 15.5 10.7614 15.5 8C15.5 5.23858 13.2614 3 10.5 3ZM3 8C3 3.85786 6.35787 0.5 10.5 0.5C14.6421 0.5 18 3.85786 18 8C18 12.1421 14.6421 15.5 10.5 15.5C6.35787 15.5 3 12.1421 3 8ZM19.0355 2.6967C19.5237 2.20854 20.3152 2.20854 20.8033 2.6967C23.7322 5.62563 23.7322 10.3744 20.8033 13.3033C20.3152 13.7915 19.5237 13.7915 19.0355 13.3033C18.5474 12.8151 18.5474 12.0237 19.0355 11.5355C20.9882 9.58291 20.9882 6.41709 19.0355 4.46447C18.5474 3.97631 18.5474 3.18485 19.0355 2.6967ZM19.9123 18.9468C20.0798 18.2771 20.7584 17.8699 21.4282 18.0373C23.0881 18.4523 24.1388 19.5137 24.743 20.7222C25.3278 21.8917 25.5 23.1964 25.5 24.25C25.5 24.9404 24.9404 25.5 24.25 25.5C23.5596 25.5 23 24.9404 23 24.25C23 23.4286 22.8597 22.5458 22.507 21.8403C22.1738 21.1738 21.6619 20.6727 20.8218 20.4627C20.1521 20.2952 19.7449 19.6166 19.9123 18.9468ZM6.125 20.5C4.55068 20.5 3 22.0169 3 24.25C3 24.9404 2.44036 25.5 1.75 25.5C1.05964 25.5 0.5 24.9404 0.5 24.25C0.5 20.9602 2.86683 18 6.125 18H14.875C18.1332 18 20.5 20.9602 20.5 24.25C20.5 24.9404 19.9404 25.5 19.25 25.5C18.5596 25.5 18 24.9404 18 24.25C18 22.0169 16.4493 20.5 14.875 20.5H6.125Z" fill="white"/>
</svg>
