<svg width="26" height="26" viewBox="0 0 26 26" fill="none" xmlns="http://www.w3.org/2000/svg">
<path d="M13 3C12.3096 3 11.75 3.55964 11.75 4.25C11.75 6.36532 9.19249 7.42468 7.69673 5.92892C7.20857 5.44077 6.41712 5.44077 5.92896 5.92892C5.44081 6.41708 5.44081 7.20853 5.92896 7.69669C7.42478 9.1925 6.36528 11.75 4.25 11.75C3.55964 11.75 3 12.3096 3 13C3 13.6904 3.55964 14.25 4.25 14.25C6.36545 14.25 7.42455 16.8076 5.92888 18.3033C5.44073 18.7915 5.44073 19.5829 5.92888 20.0711C6.41704 20.5592 7.2085 20.5592 7.69665 20.0711C9.19238 18.5753 11.75 19.6346 11.75 21.75C11.75 22.4404 12.3096 23 13 23C13.6904 23 14.25 22.4404 14.25 21.75C14.25 19.6347 16.8076 18.5753 18.3033 20.0711C18.7915 20.5592 19.5829 20.5592 20.0711 20.0711C20.5593 19.5829 20.5593 18.7914 20.0711 18.3033C18.5754 16.8076 19.6346 14.25 21.75 14.25C22.4404 14.25 23 13.6904 23 13C23 12.3096 22.4404 11.75 21.75 11.75C19.6348 11.75 18.5752 9.19257 20.071 7.69671C20.5592 7.20855 20.5592 6.4171 20.071 5.92894C19.5829 5.44079 18.7914 5.44079 18.3033 5.92894C16.8075 7.42474 14.25 6.36524 14.25 4.25C14.25 3.55964 13.6904 3 13 3ZM9.2602 3.97129C9.4028 2.03038 11.0227 0.5 13 0.5C14.9773 0.5 16.5972 2.03038 16.7398 3.97129C18.2131 2.69971 20.4406 2.763 21.8388 4.16117C23.237 5.55935 23.3003 7.78693 22.0286 9.2602C23.9696 9.40276 25.5 11.0227 25.5 13C25.5 14.9773 23.9696 16.5972 22.0287 16.7398C23.3003 18.2131 23.2371 20.4406 21.8389 21.8388C20.4407 23.237 18.2131 23.3003 16.7398 22.0286C16.5972 23.9696 14.9773 25.5 13 25.5C11.0227 25.5 9.40276 23.9696 9.2602 22.0286C7.78694 23.3003 5.55932 23.237 4.16112 21.8388C2.76293 20.4407 2.69965 18.2131 3.97128 16.7398C2.03037 16.5972 0.5 14.9773 0.5 13C0.5 11.0227 2.03042 9.40276 3.97136 9.2602C2.69973 7.78693 2.76301 5.55934 4.1612 4.16115C5.55937 2.76298 7.78694 2.69969 9.2602 3.97129Z" fill="white"/>
<path d="M13 10.5C12.337 10.5 11.7011 10.7634 11.2322 11.2322C10.7634 11.7011 10.5 12.337 10.5 13C10.5 13.663 10.7634 14.2989 11.2322 14.7678C11.7011 15.2366 12.337 15.5 13 15.5C13.663 15.5 14.2989 15.2366 14.7678 14.7678C15.2366 14.2989 15.5 13.663 15.5 13C15.5 12.337 15.2366 11.7011 14.7678 11.2322C14.2989 10.7634 13.663 10.5 13 10.5ZM9.46447 9.46447C10.4022 8.52678 11.6739 8 13 8C14.3261 8 15.5979 8.52678 16.5355 9.46447C17.4732 10.4021 18 11.6739 18 13C18 14.3261 17.4732 15.5979 16.5355 16.5355C15.5979 17.4732 14.3261 18 13 18C11.6739 18 10.4022 17.4732 9.46447 16.5355C8.52678 15.5979 8 14.3261 8 13C8 11.6739 8.52678 10.4021 9.46447 9.46447Z" fill="white"/>
</svg>
