<svg width="26" height="26" viewBox="0 0 26 26" fill="none" xmlns="http://www.w3.org/2000/svg">
<path d="M13 3C7.47715 3 3 7.47715 3 13C3 18.5228 7.47715 23 13 23C18.5229 23 23 18.5228 23 13C23 7.47715 18.5229 3 13 3ZM0.5 13C0.5 6.09644 6.09644 0.5 13 0.5C19.9036 0.5 25.5 6.09644 25.5 13C25.5 19.9036 19.9036 25.5 13 25.5C6.09644 25.5 0.5 19.9036 0.5 13ZM13 5.5C13.6904 5.5 14.25 6.05964 14.25 6.75V12.4822L17.6339 15.8661C18.122 16.3543 18.122 17.1457 17.6339 17.6339C17.1457 18.122 16.3543 18.122 15.8661 17.6339L12.1161 13.8839C11.8817 13.6495 11.75 13.3315 11.75 13V6.75C11.75 6.05964 12.3096 5.5 13 5.5Z" fill="white"/>
</svg>
