<svg width="30" height="30" viewBox="0 0 30 30" fill="none" xmlns="http://www.w3.org/2000/svg">
<g clip-path="url(#clip0_309_2338)">
<path d="M28.5002 16.0604C29.086 16.0604 29.5608 15.5855 29.5608 14.9997C29.5608 14.4139 29.086 13.939 28.5002 13.939L22.0607 13.939L23.2501 12.7497C23.6643 12.3354 23.6643 11.6639 23.2501 11.2496C22.8359 10.8354 22.1643 10.8354 21.7501 11.2496L18.75 14.2497C18.3358 14.6639 18.3358 15.3355 18.75 15.7497L21.7501 18.7497C22.1643 19.164 22.8359 19.164 23.2501 18.7497C23.6643 18.3355 23.6643 17.6639 23.2501 17.2497L22.0607 16.0604L28.5002 16.0604ZM0.439166 14.9997C0.439166 14.4139 0.914046 13.939 1.49984 13.939L7.93926 13.939L6.7499 12.7497C6.33568 12.3354 6.33568 11.6639 6.7499 11.2496C7.16412 10.8354 7.8357 10.8354 8.24992 11.2496L11.25 14.2497C11.6642 14.6639 11.6642 15.3355 11.25 15.7497L8.24992 18.7497C7.8357 19.164 7.16412 19.164 6.7499 18.7497C6.33568 18.3355 6.33568 17.6639 6.7499 17.2497L7.93925 16.0604L1.49984 16.0604C0.914045 16.0604 0.439165 15.5855 0.439166 14.9997Z" fill="#E8E8E8"/>
</g>
<defs>
<clipPath id="clip0_309_2338">
<rect width="30" height="30" fill="white"/>
</clipPath>
</defs>
</svg>
