<svg width="10" height="14" viewBox="0 0 10 14" fill="none" xmlns="http://www.w3.org/2000/svg">
<path d="M5 0.333496C5.46024 0.333496 5.83333 0.706592 5.83333 1.16683V12.8335C5.83333 13.2937 5.46024 13.6668 5 13.6668C4.53976 13.6668 4.16667 13.2937 4.16667 12.8335V1.16683C4.16667 0.706592 4.53976 0.333496 5 0.333496ZM9.16667 3.66683C9.6269 3.66683 10 4.03993 10 4.50016V12.8335C10 13.2937 9.6269 13.6668 9.16667 13.6668C8.70643 13.6668 8.33333 13.2937 8.33333 12.8335V4.50016C8.33333 4.03993 8.70643 3.66683 9.16667 3.66683ZM0.833333 7.00016C1.29357 7.00016 1.66667 7.37326 1.66667 7.8335V12.8335C1.66667 13.2937 1.29357 13.6668 0.833333 13.6668C0.373096 13.6668 0 13.2937 0 12.8335V7.8335C0 7.37326 0.373096 7.00016 0.833333 7.00016Z" fill="white"/>
</svg>
