<svg width="390" height="390" viewBox="0 0 390 390" fill="none" xmlns="http://www.w3.org/2000/svg">
<path d="M195 39C108.844 39 39 108.844 39 195C39 281.156 108.844 351 195 351C281.156 351 351 281.156 351 195C351 108.844 281.156 39 195 39ZM0 195C0 87.3045 87.3045 0 195 0C302.696 0 390 87.3045 390 195C390 302.696 302.696 390 195 390C87.3045 390 0 302.696 0 195ZM195 78C205.77 78 214.5 86.7304 214.5 97.5V186.923L267.289 239.711C274.904 247.327 274.904 259.673 267.289 267.289C259.673 274.904 247.327 274.904 239.711 267.289L181.211 208.789C177.554 205.132 175.5 200.172 175.5 195V97.5C175.5 86.7304 184.23 78 195 78Z" fill="#7171712c"/>
</svg>
