<svg width="390" height="390" viewBox="0 0 390 390" fill="none" xmlns="http://www.w3.org/2000/svg">
<path d="M195 39C184.23 39 175.5 47.7304 175.5 58.5C175.5 91.499 135.603 108.025 112.269 84.6911C104.654 77.0759 92.307 77.0759 84.6918 84.6912C77.0766 92.3064 77.0766 104.653 84.6918 112.268C108.027 135.603 91.4984 175.5 58.5 175.5C47.7305 175.5 39 184.23 39 195C39 205.77 47.7304 214.5 58.5 214.5C91.501 214.5 108.023 254.399 84.6906 277.732C77.0753 285.347 77.0753 297.694 84.6906 305.309C92.3058 312.924 104.653 312.924 112.268 305.309C135.601 281.975 175.5 298.499 175.5 331.5C175.5 342.27 184.23 351 195 351C205.77 351 214.5 342.27 214.5 331.5C214.5 298.501 254.398 281.974 277.732 305.308C285.347 312.924 297.694 312.924 305.309 305.308C312.924 297.693 312.924 285.347 305.309 277.731C281.976 254.398 298.5 214.5 331.5 214.5C342.27 214.5 351 205.77 351 195C351 184.23 342.27 175.5 331.5 175.5C298.503 175.5 281.973 135.604 305.308 112.269C312.923 104.653 312.923 92.3067 305.308 84.6915C297.693 77.0763 285.346 77.0763 277.731 84.6915C254.396 108.026 214.5 91.4978 214.5 58.5C214.5 47.7304 205.77 39 195 39ZM136.659 54.152C138.884 23.8739 164.154 0 195 0C225.846 0 251.116 23.8739 253.341 54.1521C276.324 34.3155 311.074 35.3029 332.885 57.1143C354.697 78.9259 355.684 113.676 335.847 136.659C366.126 138.883 390 164.153 390 195C390 225.846 366.126 251.116 335.848 253.341C355.685 276.324 354.698 311.074 332.886 332.886C311.075 354.697 276.324 355.685 253.341 335.847C251.117 366.126 225.847 390 195 390C164.153 390 138.883 366.126 136.659 335.847C113.676 355.685 78.9253 354.698 57.1134 332.886C35.3017 311.074 34.3145 276.324 54.152 253.341C23.8738 251.116 0 225.846 0 195C0 164.153 23.8745 138.883 54.1532 136.659C34.3158 113.676 35.3029 78.9257 57.1146 57.114C78.9262 35.3024 113.676 34.3151 136.659 54.152Z" fill="#717171"/>
<path d="M195 156C184.657 156 174.737 160.109 167.423 167.423C160.109 174.737 156 184.657 156 195C156 205.343 160.109 215.263 167.423 222.577C174.737 229.891 184.657 234 195 234C205.343 234 215.263 229.891 222.577 222.577C229.891 215.263 234 205.343 234 195C234 184.657 229.891 174.737 222.577 167.423C215.263 160.109 205.343 156 195 156ZM139.846 139.846C154.474 125.218 174.313 117 195 117C215.687 117 235.527 125.218 250.154 139.846C264.782 154.474 273 174.313 273 195C273 215.687 264.782 235.526 250.154 250.154C235.527 264.782 215.687 273 195 273C174.313 273 154.474 264.782 139.846 250.154C125.218 235.526 117 215.687 117 195C117 174.313 125.218 154.474 139.846 139.846Z" fill="#717171"/>
</svg>
