<svg width="22" height="22" viewBox="0 0 22 22" fill="none" xmlns="http://www.w3.org/2000/svg">
<path d="M3.6665 3.66683C3.6665 2.65431 4.48731 1.8335 5.49984 1.8335H12.8332C13.0763 1.8335 13.3094 1.93007 13.4813 2.10198L18.0647 6.68532C18.2366 6.85722 18.3332 7.09038 18.3332 7.3335V18.3335C18.3332 19.346 17.5124 20.1668 16.4998 20.1668H5.49984C4.48732 20.1668 3.6665 19.346 3.6665 18.3335V3.66683ZM16.1201 7.3335L12.8332 4.04653V7.3335H16.1201ZM10.9998 3.66683L5.49984 3.66683V18.3335H16.4998V9.16683H11.9165C11.4102 9.16683 10.9998 8.75642 10.9998 8.25016V3.66683ZM7.33317 11.9168C7.33317 11.4106 7.74358 11.0002 8.24984 11.0002H13.7498C14.2561 11.0002 14.6665 11.4106 14.6665 11.9168C14.6665 12.4231 14.2561 12.8335 13.7498 12.8335H8.24984C7.74358 12.8335 7.33317 12.4231 7.33317 11.9168ZM7.33317 15.5835C7.33317 15.0772 7.74358 14.6668 8.24984 14.6668H13.7498C14.2561 14.6668 14.6665 15.0772 14.6665 15.5835C14.6665 16.0898 14.2561 16.5002 13.7498 16.5002H8.24984C7.74358 16.5002 7.33317 16.0898 7.33317 15.5835Z" fill="#717171"/>
</svg>
