<svg width="21" height="20" viewBox="0 0 21 20" fill="none" xmlns="http://www.w3.org/2000/svg">
<g clip-path="url(#clip0_287_4547)">
<path d="M19.7446 8.26113L11.5868 8.26074C11.2266 8.26074 10.9346 8.5527 10.9346 8.91293V11.519C10.9346 11.8791 11.2266 12.1712 11.5868 12.1712H16.1807C15.6777 13.4767 14.7388 14.57 13.5409 15.2647L15.4998 18.6557C18.642 16.8384 20.4997 13.6497 20.4997 10.0803C20.4997 9.57203 20.4623 9.20871 20.3874 8.79961C20.3304 8.48879 20.0606 8.26113 19.7446 8.26113Z" fill="#E8E8E8"/>
<path d="M10.5001 16.0866C8.25186 16.0866 6.2892 14.8582 5.2351 13.0405L1.84424 14.995C3.56982 17.9857 6.8024 19.9996 10.5001 19.9996C12.314 19.9996 14.0256 19.5112 15.5001 18.6601V18.6554L13.5412 15.2644C12.6452 15.7841 11.6083 16.0866 10.5001 16.0866Z" fill="#E8E8E8"/>
<path d="M15.5 18.6608V18.6562L13.5411 15.2651C12.6451 15.7848 11.6083 16.0873 10.5 16.0873V20.0003C12.3139 20.0003 14.0256 19.5119 15.5 18.6608Z" fill="#E8E8E8"/>
<path d="M4.41305 9.99974C4.41305 8.89158 4.71547 7.85482 5.23504 6.95884L1.84418 5.00439C0.988359 6.4742 0.5 8.18115 0.5 9.99974C0.5 11.8183 0.988359 13.5253 1.84418 14.9951L5.23504 13.0406C4.71547 12.1447 4.41305 11.1079 4.41305 9.99974Z" fill="#E8E8E8"/>
<path d="M10.5001 3.91305C11.9661 3.91305 13.3128 4.43398 14.3646 5.30051C14.6241 5.51426 15.0012 5.49883 15.2389 5.26113L17.0854 3.41465C17.3551 3.14496 17.3359 2.70352 17.0478 2.45359C15.2855 0.924727 12.9925 0 10.5001 0C6.8024 0 3.56982 2.01395 1.84424 5.00465L5.2351 6.9591C6.2892 5.14141 8.25186 3.91305 10.5001 3.91305Z" fill="#E8E8E8"/>
<path d="M14.3645 5.30051C14.624 5.51426 15.0012 5.49883 15.2389 5.26113L17.0854 3.41465C17.355 3.14496 17.3358 2.70352 17.0477 2.45359C15.2854 0.924688 12.9925 0 10.5 0V3.91305C11.966 3.91305 13.3127 4.43398 14.3645 5.30051Z" fill="#E8E8E8"/>
</g>
<defs>
<clipPath id="clip0_287_4547">
<rect width="20" height="20" fill="white" transform="translate(0.5)"/>
</clipPath>
</defs>
</svg>
