<svg width="20" height="19" viewBox="0 0 20 19" fill="none" xmlns="http://www.w3.org/2000/svg">
<path d="M9.39117 1.06504C9.73848 0.756316 10.2619 0.756316 10.6092 1.06504L18.8592 8.39837C19.2376 8.73471 19.2716 9.31411 18.9353 9.6925C18.599 10.0709 18.0196 10.105 17.6412 9.76862L17.3335 9.49514V16.4168C17.3335 17.4294 16.5127 18.2502 15.5002 18.2502H4.50017C3.48765 18.2502 2.66684 17.4293 2.66684 16.4168V9.49514L2.35917 9.76862C1.98079 10.105 1.40139 10.0709 1.06505 9.6925C0.728706 9.31411 0.762788 8.73471 1.14117 8.39837L9.39117 1.06504ZM4.50017 7.86551V16.4168H7.25017V11.8335C7.25017 11.3272 7.66058 10.9168 8.16684 10.9168H11.8335C12.3398 10.9168 12.7502 11.3272 12.7502 11.8335V16.4168H15.5002V7.86551L10.0002 2.97662L4.50017 7.86551ZM10.9168 16.4168V12.7502H9.0835V16.4168H10.9168Z" fill="#717171"/>
</svg>
