<svg width="16" height="20" viewBox="0 0 16 20" fill="none" xmlns="http://www.w3.org/2000/svg">
<path d="M5.24984 9.54183C5.7561 9.54183 6.1665 9.13142 6.1665 8.62516C6.1665 8.1189 5.7561 7.7085 5.24984 7.7085C4.74358 7.7085 4.33317 8.1189 4.33317 8.62516C4.33317 9.13142 4.74358 9.54183 5.24984 9.54183Z" fill="#717171"/>
<path d="M7.08317 8.62516C7.08317 8.1189 7.49358 7.7085 7.99984 7.7085H10.7498C11.2561 7.7085 11.6665 8.1189 11.6665 8.62516C11.6665 9.13142 11.2561 9.54183 10.7498 9.54183H7.99984C7.49358 9.54183 7.08317 9.13142 7.08317 8.62516Z" fill="#717171"/>
<path d="M7.99984 10.4585C7.49358 10.4585 7.08317 10.8689 7.08317 11.3752C7.08317 11.8814 7.49358 12.2918 7.99984 12.2918H10.7498C11.2561 12.2918 11.6665 11.8814 11.6665 11.3752C11.6665 10.8689 11.2561 10.4585 10.7498 10.4585H7.99984Z" fill="#717171"/>
<path d="M7.99984 13.2085C7.49358 13.2085 7.08317 13.6189 7.08317 14.1252C7.08317 14.6314 7.49358 15.0418 7.99984 15.0418H10.7498C11.2561 15.0418 11.6665 14.6314 11.6665 14.1252C11.6665 13.6189 11.2561 13.2085 10.7498 13.2085H7.99984Z" fill="#717171"/>
<path d="M6.1665 11.3752C6.1665 11.8814 5.7561 12.2918 5.24984 12.2918C4.74358 12.2918 4.33317 11.8814 4.33317 11.3752C4.33317 10.8689 4.74358 10.4585 5.24984 10.4585C5.7561 10.4585 6.1665 10.8689 6.1665 11.3752Z" fill="#717171"/>
<path d="M5.24984 15.0418C5.7561 15.0418 6.1665 14.6314 6.1665 14.1252C6.1665 13.6189 5.7561 13.2085 5.24984 13.2085C4.74358 13.2085 4.33317 13.6189 4.33317 14.1252C4.33317 14.6314 4.74358 15.0418 5.24984 15.0418Z" fill="#717171"/>
<path d="M5.24984 0.833496C4.74358 0.833496 4.33317 1.2439 4.33317 1.75016H2.49984C1.48732 1.75016 0.666504 2.57097 0.666504 3.5835V17.3335C0.666504 18.346 1.48732 19.1668 2.49984 19.1668H13.4998C14.5124 19.1668 15.3332 18.346 15.3332 17.3335V3.5835C15.3332 2.57097 14.5124 1.75016 13.4998 1.75016H11.6665C11.6665 1.2439 11.2561 0.833496 10.7498 0.833496H5.24984ZM11.6665 3.5835H13.4998V17.3335H2.49984V3.5835H4.33317V4.50016C4.33317 5.00642 4.74358 5.41683 5.24984 5.41683H10.7498C11.2561 5.41683 11.6665 5.00642 11.6665 4.50016V3.5835ZM6.1665 3.5835V2.66683H9.83317V3.5835H6.1665Z" fill="#717171"/>
</svg>
