<svg width="22" height="22" viewBox="0 0 22 22" fill="none" xmlns="http://www.w3.org/2000/svg">
<path d="M7.96029 2.79704C8.14845 2.73432 8.35188 2.73432 8.54004 2.79704L13.7502 4.53375L17.7537 3.19922C18.9409 2.80351 20.1668 3.68712 20.1668 4.93847V15.8393C20.1668 16.6284 19.6619 17.329 18.9132 17.5786L14.04 19.203C13.8519 19.2657 13.6484 19.2657 13.4603 19.203L8.25016 17.4663L4.24658 18.8008C3.05944 19.1965 1.8335 18.3129 1.8335 17.0615V6.1607C1.8335 5.37157 2.33845 4.67099 3.08708 4.42144L7.96029 2.79704ZM9.16683 15.8393L12.8335 17.0615V6.1607L9.16683 4.93847V15.8393ZM7.3335 4.93847L3.66683 6.1607V17.0615L7.3335 15.8393V4.93847ZM14.6668 6.1607V17.0615L18.3335 15.8393V4.93847L14.6668 6.1607Z" fill="#717171"/>
</svg>
