<svg width="22" height="22" viewBox="0 0 22 22" fill="none" xmlns="http://www.w3.org/2000/svg">
<path d="M11.0002 3.66683C10.4939 3.66683 10.0835 4.07723 10.0835 4.5835C10.0835 6.13473 8.20799 6.91159 7.1111 5.8147C6.75312 5.45672 6.17272 5.45672 5.81474 5.8147C5.45675 6.17269 5.45676 6.75309 5.81474 7.11107C6.91167 8.208 6.1347 10.0835 4.5835 10.0835C4.07724 10.0835 3.66683 10.4939 3.66683 11.0002C3.66683 11.5064 4.07724 11.9168 4.5835 11.9168C6.13483 11.9168 6.9115 13.7924 5.81468 14.8893C5.4567 15.2472 5.4567 15.8276 5.81468 16.1856C6.17266 16.5436 6.75306 16.5436 7.11104 16.1856C8.20791 15.0888 10.0835 15.8655 10.0835 17.4168C10.0835 17.9231 10.4939 18.3335 11.0002 18.3335C11.5064 18.3335 11.9168 17.9231 11.9168 17.4168C11.9168 15.8656 13.7924 15.0887 14.8893 16.1856C15.2473 16.5436 15.8277 16.5436 16.1856 16.1856C16.5436 15.8276 16.5436 15.2472 16.1856 14.8892C15.0888 13.7924 15.8656 11.9168 17.4168 11.9168C17.9231 11.9168 18.3335 11.5064 18.3335 11.0002C18.3335 10.4939 17.9231 10.0835 17.4168 10.0835C15.8657 10.0835 15.0886 8.20804 16.1856 7.11108C16.5436 6.7531 16.5436 6.1727 16.1856 5.81472C15.8276 5.45674 15.2472 5.45674 14.8892 5.81472C13.7923 6.91164 11.9168 6.13467 11.9168 4.5835C11.9168 4.07724 11.5064 3.66683 11.0002 3.66683ZM8.25764 4.37911C8.36222 2.95577 9.55013 1.8335 11.0002 1.8335C12.4502 1.8335 13.6381 2.95577 13.7427 4.37911C14.8231 3.44662 16.4566 3.49303 17.4819 4.51836C18.5073 5.54369 18.5537 7.17725 17.6212 8.25764C19.0445 8.36219 20.1668 9.55011 20.1668 11.0002C20.1668 12.4502 19.0446 13.6381 17.6212 13.7427C18.5537 14.8231 18.5073 16.4566 17.482 17.482C16.4567 18.5073 14.8231 18.5537 13.7427 17.6212C13.6381 19.0445 12.4502 20.1668 11.0002 20.1668C9.55011 20.1668 8.36219 19.0445 8.25764 17.6212C7.17725 18.5537 5.54366 18.5073 4.51831 17.482C3.49298 16.4566 3.44657 14.8231 4.3791 13.7427C2.95577 13.6381 1.8335 12.4502 1.8335 11.0002C1.8335 9.55011 2.9558 8.36219 4.37916 8.25764C3.44663 7.17725 3.49304 5.54368 4.51837 4.51834C5.5437 3.49301 7.17725 3.4466 8.25764 4.37911Z" fill="#717171"/>
<path d="M11.0002 9.16683C10.5139 9.16683 10.0476 9.35998 9.7038 9.7038C9.35998 10.0476 9.16683 10.5139 9.16683 11.0002C9.16683 11.4864 9.35998 11.9527 9.7038 12.2965C10.0476 12.6403 10.5139 12.8335 11.0002 12.8335C11.4864 12.8335 11.9527 12.6403 12.2965 12.2965C12.6403 11.9527 12.8335 11.4864 12.8335 11.0002C12.8335 10.5139 12.6403 10.0476 12.2965 9.7038C11.9527 9.35998 11.4864 9.16683 11.0002 9.16683ZM8.40744 8.40744C9.09507 7.7198 10.0277 7.3335 11.0002 7.3335C11.9726 7.3335 12.9053 7.7198 13.5929 8.40744C14.2805 9.09507 14.6668 10.0277 14.6668 11.0002C14.6668 11.9726 14.2805 12.9053 13.5929 13.5929C12.9053 14.2805 11.9726 14.6668 11.0002 14.6668C10.0277 14.6668 9.09507 14.2805 8.40744 13.5929C7.7198 12.9053 7.3335 11.9726 7.3335 11.0002C7.3335 10.0277 7.7198 9.09507 8.40744 8.40744Z" fill="#717171"/>
</svg>
