<svg width="4" height="16" viewBox="0 0 4 16" fill="none" xmlns="http://www.w3.org/2000/svg">
<path d="M0.166585 7.99984C0.166585 9.01236 0.987397 9.83317 1.99992 9.83317C3.01244 9.83317 3.83325 9.01236 3.83325 7.99984C3.83325 6.98731 3.01244 6.1665 1.99992 6.1665C0.987397 6.1665 0.166585 6.98731 0.166585 7.99984Z" fill="#717171"/>
<path d="M0.166586 2.49984C0.166586 3.51236 0.987397 4.33317 1.99992 4.33317C3.01244 4.33317 3.83325 3.51236 3.83325 2.49984C3.83325 1.48732 3.01244 0.666504 1.99992 0.666504C0.987397 0.666504 0.166586 1.48731 0.166586 2.49984Z" fill="#717171"/>
<path d="M0.166585 13.4998C0.166585 14.5124 0.987396 15.3332 1.99992 15.3332C3.01244 15.3332 3.83325 14.5124 3.83325 13.4998C3.83325 12.4873 3.01244 11.6665 1.99992 11.6665C0.987396 11.6665 0.166585 12.4873 0.166585 13.4998Z" fill="#717171"/>
</svg>
