<svg width="22" height="22" viewBox="0 0 22 22" fill="none" xmlns="http://www.w3.org/2000/svg">
<path d="M11.0002 3.66683C6.95008 3.66683 3.66683 6.95007 3.66683 11.0002C3.66683 15.0503 6.95008 18.3335 11.0002 18.3335C15.0503 18.3335 18.3335 15.0503 18.3335 11.0002C18.3335 6.95007 15.0503 3.66683 11.0002 3.66683ZM1.8335 11.0002C1.8335 5.93755 5.93755 1.8335 11.0002 1.8335C16.0628 1.8335 20.1668 5.93755 20.1668 11.0002C20.1668 16.0628 16.0628 20.1668 11.0002 20.1668C5.93755 20.1668 1.8335 16.0628 1.8335 11.0002ZM11.0002 5.50016C11.5064 5.50016 11.9168 5.91057 11.9168 6.41683V10.6205L14.3983 13.102C14.7563 13.46 14.7563 14.0404 14.3983 14.3983C14.0404 14.7563 13.46 14.7563 13.102 14.3983L10.352 11.6483C10.1801 11.4764 10.0835 11.2433 10.0835 11.0002V6.41683C10.0835 5.91057 10.4939 5.50016 11.0002 5.50016Z" fill="#717171"/>
</svg>
