<svg width="22" height="22" viewBox="0 0 22 22" fill="none" xmlns="http://www.w3.org/2000/svg">
<path d="M9.16683 3.66683C7.14179 3.66683 5.50016 5.30845 5.50016 7.3335C5.50016 9.35854 7.14179 11.0002 9.16683 11.0002C11.1919 11.0002 12.8335 9.35854 12.8335 7.3335C12.8335 5.30845 11.1919 3.66683 9.16683 3.66683ZM3.66683 7.3335C3.66683 4.29593 6.12926 1.8335 9.16683 1.8335C12.2044 1.8335 14.6668 4.29593 14.6668 7.3335C14.6668 10.3711 12.2044 12.8335 9.16683 12.8335C6.12926 12.8335 3.66683 10.3711 3.66683 7.3335ZM15.4262 3.44441C15.7842 3.08643 16.3646 3.08643 16.7226 3.44441C18.8705 5.59229 18.8705 9.0747 16.7226 11.2226C16.3646 11.5806 15.7842 11.5806 15.4262 11.2226C15.0682 10.8646 15.0682 10.2842 15.4262 9.92622C16.8581 8.4943 16.8581 6.17269 15.4262 4.74077C15.0682 4.38279 15.0682 3.80239 15.4262 3.44441ZM16.0692 15.3612C16.192 14.87 16.6897 14.5714 17.1808 14.6942C18.3981 14.9985 19.1686 15.7768 19.6117 16.6631C20.0405 17.5207 20.1668 18.4775 20.1668 19.2502C20.1668 19.7564 19.7564 20.1668 19.2502 20.1668C18.7439 20.1668 18.3335 19.7564 18.3335 19.2502C18.3335 18.6478 18.2306 18.0004 17.9719 17.483C17.7276 16.9943 17.3522 16.6268 16.7362 16.4728C16.245 16.35 15.9464 15.8523 16.0692 15.3612ZM5.9585 16.5002C4.80399 16.5002 3.66683 17.6126 3.66683 19.2502C3.66683 19.7564 3.25642 20.1668 2.75016 20.1668C2.2439 20.1668 1.8335 19.7564 1.8335 19.2502C1.8335 16.8377 3.56917 14.6668 5.9585 14.6668H12.3752C14.7645 14.6668 16.5002 16.8377 16.5002 19.2502C16.5002 19.7564 16.0898 20.1668 15.5835 20.1668C15.0772 20.1668 14.6668 19.7564 14.6668 19.2502C14.6668 17.6126 13.5297 16.5002 12.3752 16.5002H5.9585Z" fill="#717171"/>
</svg>
