<svg width="21" height="20" viewBox="0 0 21 20" fill="none" xmlns="http://www.w3.org/2000/svg">
<g clip-path="url(#clip0_287_4537)">
<path d="M10.5001 19.9798C16.0117 19.9798 20.4798 15.5117 20.4798 10.0001C20.4798 4.48854 16.0117 0.0205078 10.5001 0.0205078C4.98854 0.0205078 0.520508 4.48854 0.520508 10.0001C0.520508 15.5117 4.98854 19.9798 10.5001 19.9798Z" fill="#E8E8E8"/>
<path d="M14.1114 16.2649H11.9206V5.42969H10.9447C9.15581 5.42969 8.21878 6.32414 8.21878 7.65932C8.21878 9.17414 8.86507 9.87599 10.2021 10.7704L11.304 11.513L8.13729 16.263H5.78174L8.63174 12.0223C6.99285 10.8519 6.07063 9.70932 6.07063 7.78155C6.07063 5.37229 7.75026 3.7334 10.9299 3.7334H14.0966V16.2612H14.1114V16.2649Z" fill="white"/>
</g>
<defs>
<clipPath id="clip0_287_4537">
<rect width="20" height="20" fill="white" transform="translate(0.5)"/>
</clipPath>
</defs>
</svg>
