<svg width="18" height="17" viewBox="0 0 18 17" fill="none" xmlns="http://www.w3.org/2000/svg">
<path d="M7.33366 1.83317C4.57224 1.83317 2.33366 4.07175 2.33366 6.83317C2.33366 9.59459 4.57224 11.8332 7.33366 11.8332C10.0951 11.8332 12.3337 9.59459 12.3337 6.83317C12.3337 4.07175 10.0951 1.83317 7.33366 1.83317ZM0.666992 6.83317C0.666992 3.15127 3.65176 0.166504 7.33366 0.166504C11.0156 0.166504 14.0003 3.15127 14.0003 6.83317C14.0003 8.37376 13.4778 9.7923 12.6002 10.9212L17.0896 15.4106C17.415 15.736 17.415 16.2637 17.0896 16.5891C16.7641 16.9145 16.2365 16.9145 15.9111 16.5891L11.4217 12.0997C10.2928 12.9773 8.87425 13.4998 7.33366 13.4998C3.65176 13.4998 0.666992 10.5151 0.666992 6.83317Z" fill="#717171"/>
</svg>
