<svg width="16" height="17" viewBox="0 0 16 17" fill="none" xmlns="http://www.w3.org/2000/svg">
<path d="M5.5 0.666748C5.96024 0.666748 6.33333 1.03984 6.33333 1.50008V2.33341H9.66667V1.50008C9.66667 1.03984 10.0398 0.666748 10.5 0.666748C10.9602 0.666748 11.3333 1.03984 11.3333 1.50008V2.33341H13.8333C14.7538 2.33341 15.5 3.07961 15.5 4.00008V14.8334C15.5 15.7539 14.7538 16.5001 13.8333 16.5001H2.16667C1.24619 16.5001 0.5 15.7539 0.5 14.8334V4.00008C0.5 3.07961 1.24619 2.33341 2.16667 2.33341H4.66667V1.50008C4.66667 1.03984 5.03976 0.666748 5.5 0.666748ZM4.66667 4.00008H2.16667V6.50008H13.8333V4.00008H11.3333V4.83341C11.3333 5.29365 10.9602 5.66675 10.5 5.66675C10.0398 5.66675 9.66667 5.29365 9.66667 4.83341V4.00008H6.33333V4.83341C6.33333 5.29365 5.96024 5.66675 5.5 5.66675C5.03976 5.66675 4.66667 5.29365 4.66667 4.83341V4.00008ZM13.8333 8.16675H2.16667V14.8334H13.8333V8.16675Z" fill="#717171"/>
</svg>
