<svg width="18" height="12" viewBox="0 0 18 12" fill="none" xmlns="http://www.w3.org/2000/svg">
<path d="M11.5001 6.00008C11.5001 7.38079 10.3808 8.50008 9.00008 8.50008C7.61937 8.50008 6.50008 7.38079 6.50008 6.00008C6.50008 4.61937 7.61937 3.50008 9.00008 3.50008C10.3808 3.50008 11.5001 4.61937 11.5001 6.00008Z" fill="#717171"/>
<path d="M17.2454 5.6274C15.4469 2.03037 12.2527 0.166748 9.00008 0.166748C5.74748 0.166748 2.55324 2.03037 0.754725 5.6274C0.637422 5.86201 0.637422 6.13815 0.754725 6.37276C2.55324 9.96979 5.74748 11.8334 9.00008 11.8334C12.2527 11.8334 15.4469 9.96979 17.2454 6.37276C17.3627 6.13815 17.3627 5.86201 17.2454 5.6274ZM9.00008 10.1667C6.52609 10.1667 3.99846 8.8161 2.44146 6.00008C3.99846 3.18407 6.52609 1.83341 9.00008 1.83341C11.4741 1.83341 14.0017 3.18407 15.5587 6.00008C14.0017 8.8161 11.4741 10.1667 9.00008 10.1667Z" fill="#717171"/>
</svg>
