<svg width="18" height="18" viewBox="0 0 18 18" fill="none" xmlns="http://www.w3.org/2000/svg">
<path d="M7.33342 2.33341C5.49247 2.33341 4.00008 3.8258 4.00008 5.66675C4.00008 7.5077 5.49247 9.00008 7.33342 9.00008C9.17437 9.00008 10.6667 7.5077 10.6667 5.66675C10.6667 3.8258 9.17437 2.33341 7.33342 2.33341ZM2.33342 5.66675C2.33342 2.90532 4.57199 0.666748 7.33342 0.666748C10.0948 0.666748 12.3334 2.90532 12.3334 5.66675C12.3334 8.42817 10.0948 10.6667 7.33342 10.6667C4.57199 10.6667 2.33342 8.42817 2.33342 5.66675ZM13.0238 2.13121C13.3492 1.80578 13.8769 1.80578 14.2023 2.13121C16.1549 4.08384 16.1549 7.24966 14.2023 9.20228C13.8769 9.52772 13.3492 9.52772 13.0238 9.20228C12.6983 8.87685 12.6983 8.34921 13.0238 8.02377C14.3255 6.72202 14.3255 4.61147 13.0238 3.30973C12.6983 2.98429 12.6983 2.45665 13.0238 2.13121ZM13.6083 12.9646C13.7199 12.5181 14.1724 12.2467 14.6189 12.3583C15.7255 12.6349 16.4259 13.3425 16.8288 14.1482C17.2186 14.9279 17.3334 15.7977 17.3334 16.5001C17.3334 16.9603 16.9603 17.3334 16.5001 17.3334C16.0398 17.3334 15.6668 16.9603 15.6668 16.5001C15.6668 15.9525 15.5732 15.364 15.3381 14.8936C15.1159 14.4493 14.7747 14.1152 14.2146 13.9752C13.7681 13.8636 13.4967 13.4111 13.6083 12.9646ZM4.41675 14.0001C3.3672 14.0001 2.33342 15.0114 2.33342 16.5001C2.33342 16.9603 1.96032 17.3334 1.50008 17.3334C1.03984 17.3334 0.666748 16.9603 0.666748 16.5001C0.666748 14.3069 2.24464 12.3334 4.41675 12.3334H10.2501C12.4222 12.3334 14.0001 14.3069 14.0001 16.5001C14.0001 16.9603 13.627 17.3334 13.1667 17.3334C12.7065 17.3334 12.3334 16.9603 12.3334 16.5001C12.3334 15.0114 11.2996 14.0001 10.2501 14.0001H4.41675Z" fill="#717171"/>
</svg>
