<svg width="18" height="16" viewBox="0 0 18 16" fill="none" xmlns="http://www.w3.org/2000/svg">
<path d="M6.23632 0.542764C6.40737 0.485745 6.59231 0.485745 6.76336 0.542764L11.4998 2.12159L15.1395 0.908383C16.2187 0.548643 17.3332 1.35193 17.3332 2.48952V12.3994C17.3332 13.1168 16.8741 13.7537 16.1936 13.9805L11.7634 15.4572C11.5923 15.5143 11.4074 15.5143 11.2363 15.4572L6.49984 13.8784L2.86022 15.0916C1.781 15.4514 0.666504 14.6481 0.666504 13.5105V3.60063C0.666504 2.88325 1.12555 2.24635 1.80612 2.01949L6.23632 0.542764ZM7.33317 12.3994L10.6665 13.5105V3.60063L7.33317 2.48952V12.3994ZM5.6665 2.48952L2.33317 3.60063V13.5105L5.6665 12.3994V2.48952ZM12.3332 3.60063V13.5105L15.6665 12.3994V2.48952L12.3332 3.60063Z" fill="#717171"/>
</svg>
