<svg width="10" height="14" viewBox="0 0 10 14" fill="none" xmlns="http://www.w3.org/2000/svg">
<path d="M5 0.333252C5.46024 0.333252 5.83333 0.706348 5.83333 1.16659V12.8333C5.83333 13.2935 5.46024 13.6666 5 13.6666C4.53976 13.6666 4.16667 13.2935 4.16667 12.8333V1.16659C4.16667 0.706348 4.53976 0.333252 5 0.333252ZM9.16667 3.66658C9.6269 3.66658 10 4.03968 10 4.49992V12.8333C10 13.2935 9.6269 13.6666 9.16667 13.6666C8.70643 13.6666 8.33333 13.2935 8.33333 12.8333V4.49992C8.33333 4.03968 8.70643 3.66658 9.16667 3.66658ZM0.833333 6.99992C1.29357 6.99992 1.66667 7.37301 1.66667 7.83325V12.8333C1.66667 13.2935 1.29357 13.6666 0.833333 13.6666C0.373096 13.6666 0 13.2935 0 12.8333V7.83325C0 7.37301 0.373096 6.99992 0.833333 6.99992Z" fill="#717171"/>
</svg>
