<svg width="18" height="13" viewBox="0 0 18 13" fill="none" xmlns="http://www.w3.org/2000/svg">
<path d="M12.4998 1.00008C12.4998 0.539844 12.8729 0.166748 13.3332 0.166748C13.8638 0.166748 14.3852 0.273368 14.8927 0.476351C15.4449 0.697256 15.87 1.02509 16.2558 1.41083C16.6415 1.79657 16.9693 2.22166 17.1902 2.77392C17.3932 3.28138 17.4998 3.8028 17.4998 4.33342C17.4998 4.86403 17.3932 5.38545 17.1902 5.89291C16.9721 6.43824 16.6497 6.85958 16.2702 7.24148L15.4498 8.14398C15.4409 8.15376 15.4318 8.16332 15.4224 8.17267L12.7558 10.8393C12.37 11.2251 11.9449 11.5529 11.3927 11.7738C10.8852 11.9768 10.3638 12.0834 9.83317 12.0834C9.30256 12.0834 8.78114 11.9768 8.27368 11.7738C7.72142 11.5529 7.29632 11.2251 6.91058 10.8393C6.52484 10.4536 6.19701 10.0285 5.97611 9.47624C5.76922 8.95902 5.6665 8.43712 5.6665 7.83342C5.6665 7.3028 5.77312 6.78138 5.97611 6.27392C6.19701 5.72166 6.52484 5.29657 6.91058 4.91083L7.82725 3.99416C8.15269 3.66872 8.68032 3.66872 9.00576 3.99416C9.3312 4.3196 9.3312 4.84723 9.00576 5.17267L8.08909 6.08934C7.80817 6.37026 7.636 6.61184 7.52357 6.89291C7.39322 7.21878 7.33317 7.5307 7.33317 7.83342C7.33317 8.22971 7.39713 8.54115 7.52357 8.85726C7.636 9.13833 7.80817 9.3799 8.08909 9.66083C8.37002 9.94175 8.61159 10.1139 8.89266 10.2264C9.21854 10.3567 9.53045 10.4167 9.83317 10.4167C10.1359 10.4167 10.4478 10.3567 10.7737 10.2264C11.0548 10.1139 11.2963 9.94175 11.5772 9.66083L14.2299 7.00818L15.0499 6.10619C15.0588 6.09641 15.0679 6.08684 15.0772 6.07749C15.3582 5.79657 15.5303 5.555 15.6428 5.27392C15.7731 4.94805 15.8332 4.63613 15.8332 4.33342C15.8332 4.0307 15.7731 3.71878 15.6428 3.39291C15.5303 3.11184 15.3582 2.87026 15.0772 2.58934C14.7963 2.30841 14.5548 2.13624 14.2737 2.02381C13.9478 1.89346 13.6359 1.83341 13.3332 1.83341C12.8729 1.83341 12.4998 1.46032 12.4998 1.00008ZM8.4165 2.25008C8.11379 2.25008 7.80187 2.31013 7.476 2.44048C7.19492 2.55291 6.95335 2.72508 6.67243 3.006L3.93645 5.74198L3.11645 6.64398C3.10756 6.65376 3.09844 6.66332 3.08909 6.67267C2.80817 6.9536 2.636 7.19517 2.52357 7.47624C2.39322 7.80212 2.33317 8.11403 2.33317 8.41675C2.33317 8.71947 2.39322 9.03138 2.52357 9.35726C2.636 9.63833 2.80817 9.8799 3.08909 10.1608C3.37002 10.4418 3.61159 10.6139 3.89266 10.7264C4.21854 10.8567 4.53045 10.9167 4.83317 10.9167C5.29341 10.9167 5.6665 11.2898 5.6665 11.7501C5.6665 12.2103 5.29341 12.5834 4.83317 12.5834C4.30256 12.5834 3.78114 12.4768 3.27368 12.2738C2.72142 12.0529 2.29632 11.7251 1.91058 11.3393C1.52484 10.9536 1.19701 10.5285 0.976107 9.97624C0.773124 9.46878 0.666504 8.94736 0.666504 8.41675C0.666504 7.88613 0.773124 7.36471 0.976107 6.85726C1.19424 6.31192 1.51664 5.89058 1.8961 5.50869L2.71655 4.60619C2.72545 4.59641 2.73457 4.58684 2.74392 4.57749L5.49392 1.82749C5.87966 1.44175 6.30475 1.11392 6.85701 0.893018C7.36447 0.690035 7.88589 0.583415 8.4165 0.583415C8.94712 0.583415 9.46854 0.690035 9.976 0.893018C10.5283 1.11392 10.9534 1.44175 11.3391 1.82749C11.7248 2.21323 12.0527 2.63833 12.2736 3.19059C12.4766 3.69805 12.5832 4.21947 12.5832 4.75008C12.5832 5.2807 12.4766 5.80212 12.2736 6.30957C12.0552 6.85551 11.7323 7.27718 11.3523 7.6594L10.4475 8.64652C10.1365 8.98579 9.60933 9.00871 9.27007 8.69771C8.9308 8.38672 8.90788 7.85958 9.21888 7.52031L10.1355 6.52031C10.1437 6.51141 10.152 6.50269 10.1606 6.49416C10.4415 6.21323 10.6137 5.97166 10.7261 5.69059C10.8565 5.36471 10.9165 5.0528 10.9165 4.75008C10.9165 4.44736 10.8565 4.13545 10.7261 3.80957C10.6137 3.5285 10.4415 3.28693 10.1606 3.006C9.87966 2.72508 9.63808 2.55291 9.35701 2.44048C9.03114 2.31013 8.71922 2.25008 8.4165 2.25008Z" fill="#717171"/>
</svg>
