<svg width="16" height="12" viewBox="0 0 16 12" fill="none" xmlns="http://www.w3.org/2000/svg">
<path fill-rule="evenodd" clip-rule="evenodd" d="M0.5 7.6665C0.5 7.20626 0.873096 6.83317 1.33333 6.83317L11.3333 6.83317C12.714 6.83317 13.8333 5.71388 13.8333 4.33317L13.8333 0.999837C13.8333 0.539599 14.2064 0.166504 14.6667 0.166504C15.1269 0.166504 15.5 0.5396 15.5 0.999837L15.5 4.33317C15.5 6.63436 13.6345 8.49984 11.3333 8.49984L1.33333 8.49983C0.873096 8.49983 0.5 8.12674 0.5 7.6665Z" fill="#717171"/>
<path fill-rule="evenodd" clip-rule="evenodd" d="M0.744078 8.25576C0.418641 7.93032 0.418641 7.40268 0.744078 7.07725L4.07741 3.74391C4.40285 3.41848 4.93049 3.41848 5.25592 3.74391C5.58136 4.06935 5.58136 4.59699 5.25592 4.92242L2.51184 7.6665L5.25592 10.4106C5.58136 10.736 5.58136 11.2637 5.25592 11.5891C4.93049 11.9145 4.40285 11.9145 4.07741 11.5891L0.744078 8.25576Z" fill="#717171"/>
</svg>
