<svg width="30" height="30" viewBox="0 0 30 30" fill="none" xmlns="http://www.w3.org/2000/svg">
<path d="M13.75 5C10.9885 5 8.75 7.23857 8.75 10C8.75 10.0405 8.75059 10.0828 8.75164 10.1278C8.76524 10.7091 8.37623 11.223 7.81308 11.3677C6.19471 11.7836 5 13.2539 5 15C5 17.0711 6.67897 18.75 8.75 18.75H10C10.6904 18.75 11.25 19.3096 11.25 20C11.25 20.6904 10.6904 21.25 10 21.25H8.75C5.29827 21.25 2.5 18.4518 2.5 15C2.5 12.4218 4.06025 10.2106 6.28657 9.25466C6.66069 5.46244 9.85933 2.5 13.75 2.5C16.5294 2.5 18.9536 4.01167 20.2488 6.25405C24.2758 6.38528 27.5 9.69111 27.5 13.75C27.5 17.8921 24.1422 21.25 20 21.25C19.3096 21.25 18.75 20.6904 18.75 20C18.75 19.3096 19.3096 18.75 20 18.75C22.7615 18.75 25 16.5114 25 13.75C25 10.9886 22.7615 8.75 20 8.75C19.8616 8.75 19.7249 8.75559 19.5898 8.76652C19.0562 8.8097 18.5543 8.50825 18.3417 8.01688C17.5729 6.23967 15.8049 5 13.75 5ZM15 12.5C15.6904 12.5 16.25 13.0596 16.25 13.75L16.25 23.2322L16.6161 22.8661C17.1043 22.378 17.8957 22.378 18.3839 22.8661C18.872 23.3543 18.872 24.1457 18.3839 24.6339L15.8839 27.1339C15.6495 27.3683 15.3315 27.5 15 27.5C14.6685 27.5 14.3505 27.3683 14.1161 27.1339L11.6161 24.6339C11.128 24.1457 11.128 23.3543 11.6161 22.8661C12.1043 22.378 12.8957 22.378 13.3839 22.8661L13.75 23.2322L13.75 13.75C13.75 13.0596 14.3096 12.5 15 12.5Z" fill="#333333"/>
</svg>
