<svg width="26" height="24" viewBox="0 0 26 24" fill="none" xmlns="http://www.w3.org/2000/svg">
<path d="M0.5 3.25C0.5 1.86929 1.61929 0.75 3 0.75H23C24.3807 0.75 25.5 1.86929 25.5 3.25V5.75C25.5 6.68384 24.988 7.4981 24.2294 7.92734C24.243 8.03297 24.25 8.14067 24.25 8.25V20.75C24.25 22.1307 23.1307 23.25 21.75 23.25H4.25C2.86929 23.25 1.75 22.1307 1.75 20.75V8.25C1.75 8.14067 1.75702 8.03297 1.77063 7.92735C1.01202 7.4981 0.5 6.68384 0.5 5.75V3.25ZM23 5.75V3.25H3V5.75H23ZM4.25 8.25V20.75H21.75V8.25H4.25ZM8 12C8 11.3096 8.55964 10.75 9.25 10.75H16.75C17.4404 10.75 18 11.3096 18 12C18 12.6904 17.4404 13.25 16.75 13.25H9.25C8.55964 13.25 8 12.6904 8 12Z" fill="#333333"/>
</svg>
