<svg width="26" height="26" viewBox="0 0 26 26" fill="none" xmlns="http://www.w3.org/2000/svg">
<path d="M6.75 3C6.75 1.61929 7.86929 0.5 9.25 0.5H16.75C18.1307 0.5 19.25 1.61929 19.25 3V5.5H21.7371C21.7448 5.49993 21.7526 5.49993 21.7603 5.5H24.25C24.9404 5.5 25.5 6.05964 25.5 6.75C25.5 7.44036 24.9404 8 24.25 8H22.9139L21.8297 23.1781C21.7363 24.4864 20.6477 25.5 19.3361 25.5H6.6639C5.3523 25.5 4.2637 24.4864 4.17025 23.1781L3.0861 8H1.75C1.05964 8 0.5 7.44036 0.5 6.75C0.5 6.05964 1.05964 5.5 1.75 5.5H4.23968C4.24744 5.49993 4.25518 5.49993 4.2629 5.5H6.75V3ZM9.25 5.5H16.75V3H9.25V5.5ZM5.59247 8L6.6639 23H19.3361L20.4075 8H5.59247Z" fill="#FF5656"/>
</svg>
