<svg width="26" height="25" viewBox="0 0 26 25" fill="none" xmlns="http://www.w3.org/2000/svg">
<path d="M11.75 3C8.98852 3 6.75 5.23857 6.75 8C6.75 8.04052 6.75059 8.08284 6.75164 8.1278C6.76524 8.70909 6.37623 9.22299 5.81308 9.3677C4.19471 9.78357 3 11.2539 3 13C3 15.0711 4.67897 16.75 6.75 16.75H8C8.69036 16.75 9.25 17.3096 9.25 18C9.25 18.6904 8.69036 19.25 8 19.25H6.75C3.29827 19.25 0.5 16.4518 0.5 13C0.5 10.4218 2.06025 8.21057 4.28657 7.25466C4.66069 3.46244 7.85933 0.5 11.75 0.5C14.5294 0.5 16.9536 2.01167 18.2488 4.25405C22.2758 4.38528 25.5 7.69111 25.5 11.75C25.5 15.8921 22.1422 19.25 18 19.25C17.3096 19.25 16.75 18.6904 16.75 18C16.75 17.3096 17.3096 16.75 18 16.75C20.7615 16.75 23 14.5114 23 11.75C23 8.98857 20.7615 6.75 18 6.75C17.8616 6.75 17.7249 6.75559 17.5898 6.76652C17.0562 6.8097 16.5543 6.50825 16.3417 6.01688C15.5729 4.23967 13.8049 3 11.75 3ZM12.1161 9.61612C12.6043 9.12796 13.3957 9.12796 13.8839 9.61612L16.3839 12.1161C16.872 12.6043 16.872 13.3957 16.3839 13.8839C15.8957 14.372 15.1043 14.372 14.6161 13.8839L14.25 13.5178V23C14.25 23.6904 13.6904 24.25 13 24.25C12.3096 24.25 11.75 23.6904 11.75 23V13.5178L11.3839 13.8839C10.8957 14.372 10.1043 14.372 9.61612 13.8839C9.12796 13.3957 9.12796 12.6043 9.61612 12.1161L12.1161 9.61612Z" fill="#333333"/>
</svg>
