<svg width="26" height="16" viewBox="0 0 26 16" fill="none" xmlns="http://www.w3.org/2000/svg">
<path d="M8 3C5.19036 3 3 5.19036 3 8C3 10.8096 5.19036 13 8 13H10.5C11.1904 13 11.75 13.5596 11.75 14.25C11.75 14.9404 11.1904 15.5 10.5 15.5H8C3.80964 15.5 0.5 12.1904 0.5 8C0.5 3.80964 3.80964 0.5 8 0.5H10.5C11.1904 0.5 11.75 1.05964 11.75 1.75C11.75 2.44036 11.1904 3 10.5 3H8ZM14.25 1.75C14.25 1.05964 14.8096 0.5 15.5 0.5H18C22.1904 0.5 25.5 3.80964 25.5 8C25.5 12.1904 22.1904 15.5 18 15.5H15.5C14.8096 15.5 14.25 14.9404 14.25 14.25C14.25 13.5596 14.8096 13 15.5 13H18C20.8096 13 23 10.8096 23 8C23 5.19036 20.8096 3 18 3H15.5C14.8096 3 14.25 2.44036 14.25 1.75ZM6.75 8C6.75 7.30964 7.30964 6.75 8 6.75H18C18.6904 6.75 19.25 7.30964 19.25 8C19.25 8.69036 18.6904 9.25 18 9.25H8C7.30964 9.25 6.75 8.69036 6.75 8Z" fill="#333333"/>
</svg>
