<svg width="22" height="26" viewBox="0 0 22 26" fill="none" xmlns="http://www.w3.org/2000/svg">
<path d="M10.9911 0.866117C11.4793 0.377961 12.2707 0.377961 12.7589 0.866117L16.5089 4.61612C16.997 5.10427 16.997 5.89573 16.5089 6.38388L12.7589 10.1339C12.2707 10.622 11.4793 10.622 10.9911 10.1339C10.503 9.64573 10.503 8.85427 10.9911 8.36612L12.6072 6.75H10.625C6.19036 6.75 2.5 10.4404 2.5 14.875C2.5 19.3096 6.19036 23 10.625 23C15.0596 23 18.75 19.3096 18.75 14.875C18.75 14.1846 19.3096 13.625 20 13.625C20.6904 13.625 21.25 14.1846 21.25 14.875C21.25 20.6904 16.4404 25.5 10.625 25.5C4.80964 25.5 0 20.6904 0 14.875C0 9.05964 4.80964 4.25 10.625 4.25H12.6072L10.9911 2.63388C10.503 2.14573 10.503 1.35427 10.9911 0.866117Z" fill="#333333"/>
</svg>
