<svg width="24" height="24" viewBox="0 0 24 24" fill="none" xmlns="http://www.w3.org/2000/svg">
<path d="M0.75 3.25C0.75 1.86929 1.86929 0.75 3.25 0.75H8.25H15.75H17.7322C18.3953 0.75 19.0312 1.01339 19.5 1.48223L22.8839 4.86612C23.1183 5.10054 23.25 5.41848 23.25 5.75V20.75C23.25 22.1307 22.1307 23.25 20.75 23.25H15.75H8.25H3.25C1.86929 23.25 0.75 22.1307 0.75 20.75V3.25ZM8.25 20.75H15.75V13.25H8.25V20.75ZM18.25 20.75H20.75V6.26777L18.25 3.76777V5.75C18.25 7.13071 17.1307 8.25 15.75 8.25H8.25C6.86929 8.25 5.75 7.13071 5.75 5.75V3.25H3.25V20.75H5.75V13.25C5.75 11.8693 6.86929 10.75 8.25 10.75H15.75C17.1307 10.75 18.25 11.8693 18.25 13.25V20.75ZM8.25 3.25V5.75H15.75V3.25H8.25Z" fill="#333333"/>
</svg>
