<svg width="18" height="16" viewBox="0 0 18 16" fill="none" xmlns="http://www.w3.org/2000/svg">
<path d="M0.666992 2.16667C0.666992 1.24619 1.41318 0.5 2.33366 0.5H15.667C16.5875 0.5 17.3337 1.24619 17.3337 2.16667V3.83333C17.3337 4.4559 16.9923 4.99873 16.4866 5.2849C16.4956 5.35532 16.5003 5.42711 16.5003 5.5V13.8333C16.5003 14.7538 15.7541 15.5 14.8337 15.5H3.16699C2.24652 15.5 1.50033 14.7538 1.50033 13.8333V5.5C1.50033 5.42711 1.505 5.35532 1.51408 5.2849C1.00834 4.99873 0.666992 4.4559 0.666992 3.83333V2.16667ZM15.667 3.83333V2.16667H2.33366V3.83333H15.667ZM3.16699 5.5V13.8333H14.8337V5.5H3.16699ZM5.66699 8C5.66699 7.53976 6.04009 7.16667 6.50033 7.16667H11.5003C11.9606 7.16667 12.3337 7.53976 12.3337 8C12.3337 8.46024 11.9606 8.83333 11.5003 8.83333H6.50033C6.04009 8.83333 5.66699 8.46024 5.66699 8Z" fill="#717171"/>
</svg>
