<svg width="16" height="18" viewBox="0 0 16 18" fill="none" xmlns="http://www.w3.org/2000/svg">
<path d="M2.16667 3.99984C2.16667 4.02112 2.17519 4.14115 2.41007 4.3494C2.64399 4.55679 3.03001 4.78163 3.57856 4.98733C4.6695 5.39643 6.23252 5.6665 8 5.6665C9.76748 5.6665 11.3305 5.39643 12.4214 4.98733C12.97 4.78163 13.356 4.55679 13.5899 4.3494C13.8248 4.14115 13.8333 4.02112 13.8333 3.99984C13.8333 3.97856 13.8248 3.85852 13.5899 3.65027C13.356 3.44288 12.97 3.21805 12.4214 3.01234C11.3305 2.60324 9.76748 2.33317 8 2.33317C6.23252 2.33317 4.6695 2.60324 3.57856 3.01234C3.03001 3.21805 2.64399 3.44288 2.41007 3.65027C2.17519 3.85852 2.16667 3.97856 2.16667 3.99984ZM0.5 3.99984C0.5 3.33076 0.864577 2.79312 1.30439 2.40318C1.74518 2.01237 2.33547 1.6985 2.99335 1.4518C4.31527 0.956076 6.08558 0.666504 8 0.666504C9.91442 0.666504 11.6847 0.956076 13.0066 1.4518C13.6645 1.6985 14.2548 2.01237 14.6956 2.40318C15.1354 2.79312 15.5 3.33076 15.5 3.99984V7.33317V10.6665V13.9998C15.5 14.6689 15.1354 15.2066 14.6956 15.5965C14.2548 15.9873 13.6645 16.3012 13.0066 16.5479C11.6847 17.0436 9.91442 17.3332 8 17.3332C6.08558 17.3332 4.31527 17.0436 2.99335 16.5479C2.33547 16.3012 1.74518 15.9873 1.30439 15.5965C0.864577 15.2066 0.5 14.6689 0.5 13.9998V10.6665V7.33317V3.99984ZM2.16667 7.33317C2.16667 7.35445 2.17519 7.47448 2.41007 7.68273C2.64399 7.89012 3.03001 8.11496 3.57856 8.32066C4.6695 8.72977 6.23252 8.99984 8 8.99984C9.76748 8.99984 11.3305 8.72977 12.4214 8.32066C12.97 8.11496 13.356 7.89012 13.5899 7.68273C13.8248 7.47448 13.8333 7.35445 13.8333 7.33317V6.18C13.5757 6.31635 13.2978 6.43869 13.0066 6.54788C11.6847 7.0436 9.91442 7.33317 8 7.33317C6.08558 7.33317 4.31527 7.0436 2.99335 6.54788C2.70218 6.43869 2.42425 6.31635 2.16667 6.18V7.33317ZM2.16667 9.51333V10.6665C2.16667 10.6878 2.17519 10.8078 2.41007 11.0161C2.64399 11.2235 3.03001 11.4483 3.57856 11.654C4.6695 12.0631 6.23252 12.3332 8 12.3332C9.76748 12.3332 11.3305 12.0631 12.4214 11.654C12.97 11.4483 13.356 11.2235 13.5899 11.0161C13.8248 10.8078 13.8333 10.6878 13.8333 10.6665V9.51333C13.5757 9.64968 13.2978 9.77202 13.0066 9.88121C11.6847 10.3769 9.91442 10.6665 8 10.6665C6.08558 10.6665 4.31527 10.3769 2.99335 9.88121C2.70218 9.77202 2.42425 9.64968 2.16667 9.51333ZM2.16667 12.8467V13.9998C2.16667 14.0211 2.17519 14.1412 2.41007 14.3494C2.64399 14.5568 3.03001 14.7816 3.57856 14.9873C4.6695 15.3964 6.23252 15.6665 8 15.6665C9.76748 15.6665 11.3305 15.3964 12.4214 14.9873C12.97 14.7816 13.356 14.5568 13.5899 14.3494C13.8248 14.1412 13.8333 14.0211 13.8333 13.9998V12.8467C13.5757 12.983 13.2978 13.1054 13.0066 13.2145C11.6847 13.7103 9.91442 13.9998 8 13.9998C6.08558 13.9998 4.31527 13.7103 2.99335 13.2145C2.70218 13.1054 2.42425 12.983 2.16667 12.8467Z" fill="#717171"/>
</svg>
