<svg width="24" height="26" viewBox="0 0 24 26" fill="none" xmlns="http://www.w3.org/2000/svg">
<path d="M3.25 5.5C3.25 5.53192 3.26278 5.71197 3.61511 6.02435C3.96598 6.33543 4.54502 6.67268 5.36784 6.98124C7.00424 7.59489 9.34878 8 12 8C14.6512 8 16.9958 7.59489 18.6322 6.98124C19.455 6.67268 20.034 6.33543 20.3849 6.02435C20.7372 5.71197 20.75 5.53192 20.75 5.5C20.75 5.46808 20.7372 5.28803 20.3849 4.97566C20.034 4.66457 19.455 4.32732 18.6322 4.01876C16.9958 3.40511 14.6512 3 12 3C9.34878 3 7.00424 3.40511 5.36784 4.01876C4.54502 4.32732 3.96598 4.66457 3.61511 4.97566C3.26278 5.28803 3.25 5.46808 3.25 5.5ZM0.75 5.5C0.75 4.49638 1.29687 3.68992 1.95659 3.10501C2.61777 2.5188 3.5032 2.048 4.49003 1.67794C6.47291 0.934358 9.12837 0.5 12 0.5C14.8716 0.5 17.5271 0.934358 19.51 1.67794C20.4968 2.048 21.3822 2.5188 22.0434 3.10501C22.7031 3.68992 23.25 4.49638 23.25 5.5V10.5V15.5V20.5C23.25 21.5036 22.7031 22.3101 22.0434 22.895C21.3822 23.4812 20.4968 23.952 19.51 24.3221C17.5271 25.0656 14.8716 25.5 12 25.5C9.12837 25.5 6.47291 25.0656 4.49003 24.3221C3.5032 23.952 2.61777 23.4812 1.95659 22.895C1.29687 22.3101 0.75 21.5036 0.75 20.5V15.5V10.5V5.5ZM3.25 10.5C3.25 10.5319 3.26278 10.712 3.61511 11.0243C3.96598 11.3354 4.54502 11.6727 5.36784 11.9812C7.00424 12.5949 9.34878 13 12 13C14.6512 13 16.9958 12.5949 18.6322 11.9812C19.455 11.6727 20.034 11.3354 20.3849 11.0243C20.7372 10.712 20.75 10.5319 20.75 10.5V8.77024C20.3636 8.97476 19.9467 9.15828 19.51 9.32206C17.5271 10.0656 14.8716 10.5 12 10.5C9.12837 10.5 6.47291 10.0656 4.49003 9.32206C4.05327 9.15828 3.63638 8.97476 3.25 8.77024V10.5ZM3.25 13.7702V15.5C3.25 15.5319 3.26278 15.712 3.61511 16.0243C3.96598 16.3354 4.54502 16.6727 5.36784 16.9812C7.00424 17.5949 9.34878 18 12 18C14.6512 18 16.9958 17.5949 18.6322 16.9812C19.455 16.6727 20.034 16.3354 20.3849 16.0243C20.7372 15.712 20.75 15.5319 20.75 15.5V13.7702C20.3636 13.9748 19.9467 14.1583 19.51 14.3221C17.5271 15.0656 14.8716 15.5 12 15.5C9.12837 15.5 6.47291 15.0656 4.49003 14.3221C4.05327 14.1583 3.63638 13.9748 3.25 13.7702ZM3.25 18.7702V20.5C3.25 20.5319 3.26278 20.712 3.61511 21.0243C3.96598 21.3354 4.54502 21.6727 5.36784 21.9812C7.00424 22.5949 9.34878 23 12 23C14.6512 23 16.9958 22.5949 18.6322 21.9812C19.455 21.6727 20.034 21.3354 20.3849 21.0243C20.7372 20.712 20.75 20.5319 20.75 20.5V18.7702C20.3636 18.9748 19.9467 19.1583 19.51 19.3221C17.5271 20.0656 14.8716 20.5 12 20.5C9.12837 20.5 6.47291 20.0656 4.49003 19.3221C4.05327 19.1583 3.63638 18.9748 3.25 18.7702Z" fill="#333333"/>
</svg>
