<svg width="14" height="14" viewBox="0 0 14 14" fill="none" xmlns="http://www.w3.org/2000/svg">
<path d="M6.99967 0.333496C7.45991 0.333496 7.83301 0.706592 7.83301 1.16683V6.16683H12.833C13.2932 6.16683 13.6663 6.53993 13.6663 7.00017C13.6663 7.4604 13.2932 7.8335 12.833 7.8335H7.83301V12.8335C7.83301 13.2937 7.45991 13.6668 6.99967 13.6668C6.53944 13.6668 6.16634 13.2937 6.16634 12.8335V7.8335H1.16634C0.706104 7.8335 0.333008 7.4604 0.333008 7.00017C0.333008 6.53993 0.706104 6.16683 1.16634 6.16683H6.16634V1.16683C6.16634 0.706592 6.53944 0.333496 6.99967 0.333496Z" fill="#717171"/>
</svg>
