<svg width="14" height="18" viewBox="0 0 14 18" fill="none" xmlns="http://www.w3.org/2000/svg">
<path d="M8.91042 0.910581C9.23586 0.585145 9.76349 0.585145 10.0889 0.910582L13.4223 4.24392C13.7477 4.56935 13.7477 5.09699 13.4223 5.42243L10.0889 8.75576C9.76349 9.0812 9.23585 9.0812 8.91042 8.75576C8.58498 8.43032 8.58498 7.90269 8.91042 7.57725L10.8212 5.6665L1.16634 5.6665C0.706104 5.6665 0.333008 5.29341 0.333008 4.83317C0.333008 4.37293 0.706104 3.99984 1.16634 3.99984L10.8212 3.99984L8.91042 2.08909C8.58498 1.76366 8.58498 1.23602 8.91042 0.910581ZM5.08893 9.24392C5.41437 9.56935 5.41437 10.097 5.08893 10.4224L3.17819 12.3332H12.833C13.2932 12.3332 13.6663 12.7063 13.6663 13.1665C13.6663 13.6267 13.2932 13.9998 12.833 13.9998H3.17819L5.08893 15.9106C5.41437 16.236 5.41437 16.7637 5.08893 17.0891C4.76349 17.4145 4.23586 17.4145 3.91042 17.0891L0.577085 13.7558C0.420805 13.5995 0.333008 13.3875 0.333008 13.1665C0.333008 12.9455 0.420805 12.7335 0.577086 12.5772L3.91042 9.24392C4.23586 8.91848 4.76349 8.91848 5.08893 9.24392Z" fill="#717171"/>
</svg>
