<svg width="18" height="18" viewBox="0 0 18 18" fill="none" xmlns="http://www.w3.org/2000/svg">
<path d="M0.666992 2.33317C0.666992 1.4127 1.41318 0.666504 2.33366 0.666504H10.667C11.5875 0.666504 12.3337 1.4127 12.3337 2.33317V5.6665H15.667C16.5875 5.6665 17.3337 6.4127 17.3337 7.33317V15.6665C17.3337 16.587 16.5875 17.3332 15.667 17.3332H7.33366C6.41318 17.3332 5.66699 16.587 5.66699 15.6665V12.3332H2.33366C1.41318 12.3332 0.666992 11.587 0.666992 10.6665V2.33317ZM7.33366 12.3332V15.6665H15.667V7.33317H12.3337V10.6665C12.3337 11.587 11.5875 12.3332 10.667 12.3332H7.33366ZM10.667 10.6665V2.33317L2.33366 2.33317V10.6665H10.667Z" fill="#717171"/>
</svg>
