<svg width="18" height="18" viewBox="0 0 18 18" fill="none" xmlns="http://www.w3.org/2000/svg">
<path d="M4.83366 2.33317C4.83366 1.4127 5.57985 0.666504 6.50033 0.666504H11.5003C12.4208 0.666504 13.167 1.4127 13.167 2.33317V3.99984H14.8251C14.8302 3.99979 14.8354 3.99979 14.8405 3.99984H16.5003C16.9606 3.99984 17.3337 4.37293 17.3337 4.83317C17.3337 5.29341 16.9606 5.6665 16.5003 5.6665H15.6096L14.8868 15.7852C14.8245 16.6574 14.0988 17.3332 13.2244 17.3332H4.77626C3.90186 17.3332 3.17613 16.6574 3.11383 15.7852L2.39106 5.6665H1.50033C1.04009 5.6665 0.666992 5.29341 0.666992 4.83317C0.666992 4.37293 1.04009 3.99984 1.50033 3.99984H3.16011C3.16528 3.99979 3.17044 3.99979 3.17559 3.99984H4.83366V2.33317ZM6.50033 3.99984H11.5003V2.33317H6.50033V3.99984ZM4.06197 5.6665L4.77626 15.6665H13.2244L13.9387 5.6665H4.06197Z" fill="#FF9A9A"/>
</svg>
