<svg width="18" height="12" viewBox="0 0 18 12" fill="none" xmlns="http://www.w3.org/2000/svg">
<path d="M11.4993 5.99984C11.4993 7.38055 10.3801 8.49984 8.99935 8.49984C7.61864 8.49984 6.49935 7.38055 6.49935 5.99984C6.49935 4.61913 7.61864 3.49984 8.99935 3.49984C10.3801 3.49984 11.4993 4.61913 11.4993 5.99984Z" fill="#717171"/>
<path d="M17.2447 5.62716C15.4462 2.03013 12.252 0.166504 8.99935 0.166504C5.74674 0.166504 2.55251 2.03013 0.753993 5.62716C0.63669 5.86177 0.63669 6.13791 0.753993 6.37252C2.55251 9.96955 5.74674 11.8332 8.99935 11.8332C12.252 11.8332 15.4462 9.96955 17.2447 6.37252C17.362 6.13791 17.362 5.86177 17.2447 5.62716ZM8.99935 10.1665C6.52536 10.1665 3.99773 8.81585 2.44073 5.99984C3.99773 3.18382 6.52536 1.83317 8.99935 1.83317C11.4733 1.83317 14.001 3.18382 15.558 5.99984C14.001 8.81585 11.4733 10.1665 8.99935 10.1665Z" fill="#717171"/>
</svg>
