<svg width="18" height="10" viewBox="0 0 18 10" fill="none" xmlns="http://www.w3.org/2000/svg">
<path d="M5.66699 1.66667C3.7939 1.66667 2.33366 3.1269 2.33366 5C2.33366 6.8731 3.7939 8.33333 5.66699 8.33333H7.33366C7.7939 8.33333 8.16699 8.70643 8.16699 9.16667C8.16699 9.6269 7.7939 10 7.33366 10H5.66699C2.87342 10 0.666992 7.79357 0.666992 5C0.666992 2.20643 2.87342 0 5.66699 0H7.33366C7.7939 0 8.16699 0.373096 8.16699 0.833333C8.16699 1.29357 7.7939 1.66667 7.33366 1.66667H5.66699ZM9.83366 0.833333C9.83366 0.373096 10.2068 0 10.667 0H12.3337C15.1272 0 17.3337 2.20643 17.3337 5C17.3337 7.79357 15.1272 10 12.3337 10H10.667C10.2068 10 9.83366 9.6269 9.83366 9.16667C9.83366 8.70643 10.2068 8.33333 10.667 8.33333H12.3337C14.2068 8.33333 15.667 6.8731 15.667 5C15.667 3.1269 14.2068 1.66667 12.3337 1.66667H10.667C10.2068 1.66667 9.83366 1.29357 9.83366 0.833333ZM4.83366 5C4.83366 4.53976 5.20676 4.16667 5.66699 4.16667H12.3337C12.7939 4.16667 13.167 4.53976 13.167 5C13.167 5.46024 12.7939 5.83333 12.3337 5.83333H5.66699C5.20676 5.83333 4.83366 5.46024 4.83366 5Z" fill="#717171"/>
</svg>
