<svg width="18" height="16" viewBox="0 0 18 16" fill="none" xmlns="http://www.w3.org/2000/svg">
<path d="M6.2368 0.542764C6.40786 0.485745 6.59279 0.485745 6.76385 0.542764L11.5003 2.12159L15.1399 0.908383C16.2192 0.548643 17.3337 1.35193 17.3337 2.48952V12.3994C17.3337 13.1168 16.8746 13.7537 16.194 13.9805L11.7639 15.4572C11.5928 15.5143 11.4079 15.5143 11.2368 15.4572L6.50033 13.8784L2.86071 15.0916C1.78149 15.4514 0.666992 14.6481 0.666992 13.5105V3.60063C0.666992 2.88325 1.12604 2.24635 1.80661 2.01949L6.2368 0.542764ZM7.33366 12.3994L10.667 13.5105V3.60063L7.33366 2.48952V12.3994ZM5.66699 2.48952L2.33366 3.60063V13.5105L5.66699 12.3994V2.48952ZM12.3337 3.60063V13.5105L15.667 12.3994V2.48952L12.3337 3.60063Z" fill="#717171"/>
</svg>
