<svg width="15" height="18" viewBox="0 0 15 18" fill="none" xmlns="http://www.w3.org/2000/svg">
<path d="M7.6614 0.910582C7.98683 0.585145 8.51447 0.585145 8.83991 0.910582L11.3399 3.41058C11.6653 3.73602 11.6653 4.26366 11.3399 4.58909L8.83991 7.08909C8.51447 7.41453 7.98683 7.41453 7.6614 7.08909C7.33596 6.76366 7.33596 6.23602 7.6614 5.91058L8.73881 4.83317H7.41732C4.46089 4.83317 2.00065 7.29341 2.00065 10.2498C2.00065 13.2063 4.46089 15.6665 7.41732 15.6665C10.3737 15.6665 12.834 13.2063 12.834 10.2498C12.834 9.7896 13.2071 9.4165 13.6673 9.4165C14.1276 9.4165 14.5007 9.7896 14.5007 10.2498C14.5007 14.1267 11.2942 17.3332 7.41732 17.3332C3.54041 17.3332 0.333984 14.1267 0.333984 10.2498C0.333984 6.37293 3.54041 3.1665 7.41732 3.1665H8.73881L7.6614 2.08909C7.33596 1.76366 7.33596 1.23602 7.6614 0.910582Z" fill="#717171"/>
</svg>
