<svg width="18" height="16" viewBox="0 0 18 16" fill="none" xmlns="http://www.w3.org/2000/svg">
<path d="M0.666504 2.16667C0.666504 1.24619 1.4127 0.5 2.33317 0.5H15.6665C16.587 0.5 17.3332 1.24619 17.3332 2.16667V3.83333C17.3332 4.4559 16.9918 4.99873 16.4861 5.2849C16.4952 5.35532 16.4998 5.42711 16.4998 5.5V13.8333C16.4998 14.7538 15.7536 15.5 14.8332 15.5H3.1665C2.24603 15.5 1.49984 14.7538 1.49984 13.8333V5.5C1.49984 5.42711 1.50452 5.35532 1.51359 5.2849C1.00785 4.99873 0.666504 4.45589 0.666504 3.83333V2.16667ZM15.6665 3.83333V2.16667H2.33317V3.83333H15.6665ZM3.1665 5.5V13.8333H14.8332V5.5H3.1665ZM5.6665 8C5.6665 7.53976 6.0396 7.16667 6.49984 7.16667H11.4998C11.9601 7.16667 12.3332 7.53976 12.3332 8C12.3332 8.46024 11.9601 8.83333 11.4998 8.83333H6.49984C6.0396 8.83333 5.6665 8.46024 5.6665 8Z" fill="#717171"/>
</svg>
