<svg width="18" height="18" viewBox="0 0 18 18" fill="none" xmlns="http://www.w3.org/2000/svg">
<path d="M4.83317 2.33317C4.83317 1.4127 5.57936 0.666504 6.49984 0.666504H11.4998C12.4203 0.666504 13.1665 1.4127 13.1665 2.33317V3.99984H14.8246C14.8297 3.99979 14.8349 3.99979 14.8401 3.99984H16.4998C16.9601 3.99984 17.3332 4.37293 17.3332 4.83317C17.3332 5.29341 16.9601 5.6665 16.4998 5.6665H15.6091L14.8863 15.7852C14.824 16.6574 14.0983 17.3332 13.2239 17.3332H4.77577C3.90137 17.3332 3.17564 16.6574 3.11334 15.7852L2.39057 5.6665H1.49984C1.0396 5.6665 0.666504 5.29341 0.666504 4.83317C0.666504 4.37293 1.0396 3.99984 1.49984 3.99984H3.15962C3.16479 3.99979 3.16995 3.99979 3.1751 3.99984H4.83317V2.33317ZM6.49984 3.99984H11.4998V2.33317H6.49984V3.99984ZM4.06148 5.6665L4.77577 15.6665H13.2239L13.9382 5.6665H4.06148Z" fill="#FF9A9A"/>
</svg>
