<svg width="12" height="9" viewBox="0 0 12 9" fill="none" xmlns="http://www.w3.org/2000/svg">
<g clip-path="url(#clip0_101_153)">
<path d="M12 1.5C12 2.05228 11.5523 2.5 11 2.5L1 2.5C0.447715 2.5 -6.78525e-08 2.05228 -4.37114e-08 1.5C-1.95703e-08 0.947715 0.447715 0.499999 1 0.5L11 0.5C11.5523 0.5 12 0.947715 12 1.5ZM12 7.5C12 8.05228 11.5523 8.5 11 8.5L1 8.5C0.447714 8.5 -3.30121e-07 8.05228 -3.0598e-07 7.5C-2.81839e-07 6.94771 0.447715 6.5 1 6.5L11 6.5C11.5523 6.5 12 6.94772 12 7.5Z" fill="#717171"/>
</g>
<defs>
<clipPath id="clip0_101_153">
<rect width="8" height="12" fill="white" transform="translate(12 0.5) rotate(90)"/>
</clipPath>
</defs>
</svg>
