<svg width="15" height="18" viewBox="0 0 15 18" fill="none" xmlns="http://www.w3.org/2000/svg">
<path d="M7.66091 0.910582C7.98634 0.585145 8.51398 0.585145 8.83942 0.910582L11.3394 3.41058C11.6649 3.73602 11.6649 4.26366 11.3394 4.58909L8.83942 7.08909C8.51398 7.41453 7.98634 7.41453 7.66091 7.08909C7.33547 6.76366 7.33547 6.23602 7.66091 5.91058L8.73832 4.83317H7.41683C4.4604 4.83317 2.00016 7.29341 2.00016 10.2498C2.00016 13.2063 4.4604 15.6665 7.41683 15.6665C10.3733 15.6665 12.8335 13.2063 12.8335 10.2498C12.8335 9.7896 13.2066 9.4165 13.6668 9.4165C14.1271 9.4165 14.5002 9.7896 14.5002 10.2498C14.5002 14.1267 11.2937 17.3332 7.41683 17.3332C3.53993 17.3332 0.333496 14.1267 0.333496 10.2498C0.333496 6.37293 3.53993 3.1665 7.41683 3.1665H8.73832L7.66091 2.08909C7.33547 1.76366 7.33547 1.23602 7.66091 0.910582Z" fill="#717171"/>
</svg>
