<svg width="17" height="17" viewBox="0 0 17 17" fill="none" xmlns="http://www.w3.org/2000/svg">
<path d="M11.5774 0.910582C11.9028 0.585145 12.4305 0.585145 12.7559 0.910582L16.0893 4.24392C16.4147 4.56935 16.4147 5.09699 16.0893 5.42243L5.25592 16.2558C5.09964 16.412 4.88768 16.4998 4.66667 16.4998H1.33333C0.873096 16.4998 0.5 16.1267 0.5 15.6665V12.3332C0.5 12.1122 0.587797 11.9002 0.744078 11.7439L9.07724 3.41075L11.5774 0.910582ZM9.66667 5.17835L2.16667 12.6783V14.8332H4.32149L11.8215 7.33317L9.66667 5.17835ZM13 6.15466L14.3215 4.83317L12.1667 2.67835L10.8452 3.99984L13 6.15466Z" fill="#717171"/>
</svg>
