<svg width="12" height="12" viewBox="0 0 12 12" fill="none" xmlns="http://www.w3.org/2000/svg">
<path d="M0.410826 0.410826C0.736263 0.0853888 1.2639 0.0853888 1.58934 0.410826L6.00008 4.82157L10.4108 0.410826C10.7363 0.0853888 11.2639 0.0853888 11.5893 0.410826C11.9148 0.736263 11.9148 1.2639 11.5893 1.58934L7.17859 6.00008L11.5893 10.4108C11.9148 10.7363 11.9148 11.2639 11.5893 11.5893C11.2639 11.9148 10.7363 11.9148 10.4108 11.5893L6.00008 7.17859L1.58934 11.5893C1.2639 11.9148 0.736263 11.9148 0.410826 11.5893C0.0853888 11.2639 0.0853888 10.7363 0.410826 10.4108L4.82157 6.00008L0.410826 1.58934C0.0853888 1.2639 0.0853888 0.736263 0.410826 0.410826Z" fill="white"/>
</svg>
