<svg width="46" height="46" viewBox="0 0 46 46" fill="none" xmlns="http://www.w3.org/2000/svg">
<path d="M0.5 5.5C0.5 2.73858 2.73858 0.5 5.5 0.5H40.5C43.2614 0.5 45.5 2.73858 45.5 5.5V40.5C45.5 43.2614 43.2614 45.5 40.5 45.5H5.5C2.73858 45.5 0.5 43.2614 0.5 40.5V5.5ZM40.5 5.5H5.5V40.5H40.5V5.5ZM23 10.5C24.3807 10.5 25.5 11.6193 25.5 13V33C25.5 34.3807 24.3807 35.5 23 35.5C21.6193 35.5 20.5 34.3807 20.5 33V13C20.5 11.6193 21.6193 10.5 23 10.5ZM33 15.5C34.3807 15.5 35.5 16.6193 35.5 18V33C35.5 34.3807 34.3807 35.5 33 35.5C31.6193 35.5 30.5 34.3807 30.5 33V18C30.5 16.6193 31.6193 15.5 33 15.5ZM13 20.5C14.3807 20.5 15.5 21.6193 15.5 23V33C15.5 34.3807 14.3807 35.5 13 35.5C11.6193 35.5 10.5 34.3807 10.5 33V23C10.5 21.6193 11.6193 20.5 13 20.5Z" fill="url(#paint0_linear_218_826)"/>
<defs>
<linearGradient id="paint0_linear_218_826" x1="12.5" y1="6.5" x2="50" y2="98" gradientUnits="userSpaceOnUse">
<stop stop-color="#FEB700"/>
<stop offset="1" stop-color="#FE0000"/>
</linearGradient>
</defs>
</svg>
