<svg width="50" height="30" viewBox="0 0 50 30" fill="none" xmlns="http://www.w3.org/2000/svg">
<path d="M15 5C9.38071 5 5 9.38071 5 15C5 20.6193 9.38071 25 15 25H20C21.3807 25 22.5 26.1193 22.5 27.5C22.5 28.8807 21.3807 30 20 30H15C6.61929 30 0 23.3807 0 15C0 6.61929 6.61929 0 15 0H20C21.3807 0 22.5 1.11929 22.5 2.5C22.5 3.88071 21.3807 5 20 5H15ZM27.5 2.5C27.5 1.11929 28.6193 0 30 0H35C43.3807 0 50 6.61929 50 15C50 23.3807 43.3807 30 35 30H30C28.6193 30 27.5 28.8807 27.5 27.5C27.5 26.1193 28.6193 25 30 25H35C40.6193 25 45 20.6193 45 15C45 9.38071 40.6193 5 35 5H30C28.6193 5 27.5 3.88071 27.5 2.5ZM12.5 15C12.5 13.6193 13.6193 12.5 15 12.5H35C36.3807 12.5 37.5 13.6193 37.5 15C37.5 16.3807 36.3807 17.5 35 17.5H15C13.6193 17.5 12.5 16.3807 12.5 15Z" fill="url(#paint0_linear_218_684)"/>
<defs>
<linearGradient id="paint0_linear_218_684" x1="13.3333" y1="4" x2="29.8539" y2="71.1835" gradientUnits="userSpaceOnUse">
<stop stop-color="#FEB700"/>
<stop offset="1" stop-color="#FE0000"/>
</linearGradient>
</defs>
</svg>
