<svg width="50" height="50" viewBox="0 0 50 50" fill="none" xmlns="http://www.w3.org/2000/svg">
<path d="M20 5C14.4772 5 10 9.47715 10 15C10 20.5228 14.4772 25 20 25C25.5229 25 30 20.5228 30 15C30 9.47715 25.5229 5 20 5ZM5 15C5 6.71573 11.7157 0 20 0C28.2843 0 35 6.71573 35 15C35 23.2843 28.2843 30 20 30C11.7157 30 5 23.2843 5 15ZM37.0711 4.3934C38.0474 3.41709 39.6303 3.41709 40.6066 4.3934C46.4645 10.2513 46.4645 19.7487 40.6066 25.6066C39.6303 26.5829 38.0474 26.5829 37.0711 25.6066C36.0948 24.6303 36.0948 23.0474 37.0711 22.0711C40.9763 18.1658 40.9763 11.8342 37.0711 7.92893C36.0948 6.95262 36.0948 5.36971 37.0711 4.3934ZM38.8247 36.8937C39.1595 35.5542 40.5169 34.7398 41.8563 35.0746C45.1761 35.9046 47.2775 38.0273 48.4861 40.4445C49.6555 42.7834 50 45.3928 50 47.5C50 48.8807 48.8807 50 47.5 50C46.1193 50 45 48.8807 45 47.5C45 45.8572 44.7195 44.0916 44.0139 42.6805C43.3475 41.3477 42.3239 40.3454 40.6437 39.9254C39.3042 39.5905 38.4898 38.2332 38.8247 36.8937ZM11.25 40C8.10135 40 5 43.0339 5 47.5C5 48.8807 3.88071 50 2.5 50C1.11929 50 0 48.8807 0 47.5C0 40.9205 4.73367 35 11.25 35H28.75C35.2663 35 40 40.9205 40 47.5C40 48.8807 38.8807 50 37.5 50C36.1193 50 35 48.8807 35 47.5C35 43.0339 31.8987 40 28.75 40H11.25Z" fill="url(#paint0_linear_218_893)"/>
<defs>
<linearGradient id="paint0_linear_218_893" x1="13.3333" y1="6.66667" x2="55" y2="108.333" gradientUnits="userSpaceOnUse">
<stop stop-color="#FEB700"/>
<stop offset="1" stop-color="#FE0000"/>
</linearGradient>
</defs>
</svg>
