<svg width="40" height="50" viewBox="0 0 40 50" fill="none" xmlns="http://www.w3.org/2000/svg">
<path d="M12.5 23.75C13.8807 23.75 15 22.6307 15 21.25C15 19.8693 13.8807 18.75 12.5 18.75C11.1193 18.75 10 19.8693 10 21.25C10 22.6307 11.1193 23.75 12.5 23.75Z" fill="url(#paint0_linear_218_76)"/>
<path d="M17.5 21.25C17.5 19.8693 18.6193 18.75 20 18.75H27.5C28.8807 18.75 30 19.8693 30 21.25C30 22.6307 28.8807 23.75 27.5 23.75H20C18.6193 23.75 17.5 22.6307 17.5 21.25Z" fill="url(#paint1_linear_218_76)"/>
<path d="M20 26.25C18.6193 26.25 17.5 27.3693 17.5 28.75C17.5 30.1307 18.6193 31.25 20 31.25H27.5C28.8807 31.25 30 30.1307 30 28.75C30 27.3693 28.8807 26.25 27.5 26.25H20Z" fill="url(#paint2_linear_218_76)"/>
<path d="M20 33.75C18.6193 33.75 17.5 34.8693 17.5 36.25C17.5 37.6307 18.6193 38.75 20 38.75H27.5C28.8807 38.75 30 37.6307 30 36.25C30 34.8693 28.8807 33.75 27.5 33.75H20Z" fill="url(#paint3_linear_218_76)"/>
<path d="M15 28.75C15 30.1307 13.8807 31.25 12.5 31.25C11.1193 31.25 10 30.1307 10 28.75C10 27.3693 11.1193 26.25 12.5 26.25C13.8807 26.25 15 27.3693 15 28.75Z" fill="url(#paint4_linear_218_76)"/>
<path d="M12.5 38.75C13.8807 38.75 15 37.6307 15 36.25C15 34.8693 13.8807 33.75 12.5 33.75C11.1193 33.75 10 34.8693 10 36.25C10 37.6307 11.1193 38.75 12.5 38.75Z" fill="url(#paint5_linear_218_76)"/>
<path d="M12.5 0C11.1193 0 10 1.11929 10 2.5H5C2.23858 2.5 0 4.73858 0 7.5V45C0 47.7614 2.23858 50 5 50H35C37.7614 50 40 47.7614 40 45V7.5C40 4.73858 37.7614 2.5 35 2.5H30C30 1.11929 28.8807 0 27.5 0H12.5ZM30 7.5H35V45H5V7.5H10V10C10 11.3807 11.1193 12.5 12.5 12.5H27.5C28.8807 12.5 30 11.3807 30 10V7.5ZM15 7.5V5H25V7.5H15Z" fill="url(#paint6_linear_218_76)"/>
<defs>
<linearGradient id="paint0_linear_218_76" x1="10.6667" y1="6.66667" x2="58.8521" y2="100.725" gradientUnits="userSpaceOnUse">
<stop stop-color="#FEB700"/>
<stop offset="1" stop-color="#FE0000"/>
</linearGradient>
<linearGradient id="paint1_linear_218_76" x1="10.6667" y1="6.66667" x2="58.8521" y2="100.725" gradientUnits="userSpaceOnUse">
<stop stop-color="#FEB700"/>
<stop offset="1" stop-color="#FE0000"/>
</linearGradient>
<linearGradient id="paint2_linear_218_76" x1="10.6667" y1="6.66667" x2="58.8521" y2="100.725" gradientUnits="userSpaceOnUse">
<stop stop-color="#FEB700"/>
<stop offset="1" stop-color="#FE0000"/>
</linearGradient>
<linearGradient id="paint3_linear_218_76" x1="10.6667" y1="6.66667" x2="58.8521" y2="100.725" gradientUnits="userSpaceOnUse">
<stop stop-color="#FEB700"/>
<stop offset="1" stop-color="#FE0000"/>
</linearGradient>
<linearGradient id="paint4_linear_218_76" x1="10.6667" y1="6.66667" x2="58.8521" y2="100.725" gradientUnits="userSpaceOnUse">
<stop stop-color="#FEB700"/>
<stop offset="1" stop-color="#FE0000"/>
</linearGradient>
<linearGradient id="paint5_linear_218_76" x1="10.6667" y1="6.66667" x2="58.8521" y2="100.725" gradientUnits="userSpaceOnUse">
<stop stop-color="#FEB700"/>
<stop offset="1" stop-color="#FE0000"/>
</linearGradient>
<linearGradient id="paint6_linear_218_76" x1="10.6667" y1="6.66667" x2="58.8521" y2="100.725" gradientUnits="userSpaceOnUse">
<stop stop-color="#FEB700"/>
<stop offset="1" stop-color="#FE0000"/>
</linearGradient>
</defs>
</svg>
