<svg width="40" height="50" viewBox="0 0 40 50" fill="none" xmlns="http://www.w3.org/2000/svg">
<path d="M0 5C0 2.23858 2.23857 0 5 0H25C25.663 0 26.2989 0.263392 26.7678 0.732233L39.2678 13.2322C39.7366 13.7011 40 14.337 40 15V45C40 47.7614 37.7614 50 35 50H5C2.23858 50 0 47.7614 0 45V5ZM33.9645 15L25 6.03553V15H33.9645ZM20 5L5 5V45H35V20H22.5C21.1193 20 20 18.8807 20 17.5V5ZM10 27.5C10 26.1193 11.1193 25 12.5 25H27.5C28.8807 25 30 26.1193 30 27.5C30 28.8807 28.8807 30 27.5 30H12.5C11.1193 30 10 28.8807 10 27.5ZM10 37.5C10 36.1193 11.1193 35 12.5 35H27.5C28.8807 35 30 36.1193 30 37.5C30 38.8807 28.8807 40 27.5 40H12.5C11.1193 40 10 38.8807 10 37.5Z" fill="url(#paint0_linear_218_615)"/>
<defs>
<linearGradient id="paint0_linear_218_615" x1="10.6667" y1="6.66667" x2="58.8521" y2="100.725" gradientUnits="userSpaceOnUse">
<stop stop-color="#FEB700"/>
<stop offset="1" stop-color="#FE0000"/>
</linearGradient>
</defs>
</svg>
