<svg width="60" height="60" viewBox="0 0 60 60" fill="none" xmlns="http://www.w3.org/2000/svg">
<path d="M25 10C16.7157 10 10 16.7157 10 25C10 33.2843 16.7157 40 25 40C33.2843 40 40 33.2843 40 25C40 16.7157 33.2843 10 25 10ZM5 25C5 13.9543 13.9543 5 25 5C36.0457 5 45 13.9543 45 25C45 29.6218 43.4323 33.8774 40.7996 37.2641L54.2678 50.7322C55.2441 51.7086 55.2441 53.2915 54.2678 54.2678C53.2915 55.2441 51.7086 55.2441 50.7322 54.2678L37.2641 40.7996C33.8774 43.4323 29.6218 45 25 45C13.9543 45 5 36.0457 5 25Z" fill="url(#paint0_linear_179_5709)"/>
<defs>
<linearGradient id="paint0_linear_179_5709" x1="18.3333" y1="11.6667" x2="60" y2="113.333" gradientUnits="userSpaceOnUse">
<stop stop-color="#FEB700"/>
<stop offset="1" stop-color="#FE0000"/>
</linearGradient>
</defs>
</svg>
