<svg width="50" height="50" viewBox="0 0 50 50" fill="none" xmlns="http://www.w3.org/2000/svg">
<path d="M25 5C13.9543 5 5 13.9543 5 25C5 36.0457 13.9543 45 25 45C36.0457 45 45 36.0457 45 25C45 13.9543 36.0457 5 25 5ZM0 25C0 11.1929 11.1929 0 25 0C38.8071 0 50 11.1929 50 25C50 38.8071 38.8071 50 25 50C11.1929 50 0 38.8071 0 25ZM25 10C26.3807 10 27.5 11.1193 27.5 12.5V23.9645L34.2678 30.7322C35.2441 31.7085 35.2441 33.2915 34.2678 34.2678C33.2915 35.2441 31.7085 35.2441 30.7322 34.2678L23.2322 26.7678C22.7634 26.2989 22.5 25.663 22.5 25V12.5C22.5 11.1193 23.6193 10 25 10Z" fill="url(#paint0_linear_218_822)"/>
<defs>
<linearGradient id="paint0_linear_218_822" x1="13.3333" y1="6.66667" x2="55" y2="108.333" gradientUnits="userSpaceOnUse">
<stop stop-color="#FEB700"/>
<stop offset="1" stop-color="#FE0000"/>
</linearGradient>
</defs>
</svg>
