<svg width="46" height="50" viewBox="0 0 46 50" fill="none" xmlns="http://www.w3.org/2000/svg">
<path d="M5.5 10C5.5 10.0638 5.52556 10.4239 6.23022 11.0487C6.93196 11.6709 8.09004 12.3454 9.73567 12.9625C13.0085 14.1898 17.6976 15 23 15C28.3024 15 32.9915 14.1898 36.2643 12.9625C37.91 12.3454 39.068 11.6709 39.7698 11.0487C40.4744 10.4239 40.5 10.0638 40.5 10C40.5 9.93617 40.4744 9.57606 39.7698 8.95131C39.068 8.32914 37.91 7.65464 36.2643 7.03752C32.9915 5.81022 28.3024 5 23 5C17.6976 5 13.0085 5.81022 9.73567 7.03752C8.09004 7.65464 6.93196 8.32914 6.23022 8.95131C5.52556 9.57606 5.5 9.93617 5.5 10ZM0.5 10C0.5 7.99277 1.59373 6.37984 2.91318 5.21001C4.23555 4.03761 6.0064 3.096 7.98006 2.35588C11.9458 0.868716 17.2567 0 23 0C28.7433 0 34.0542 0.868716 38.0199 2.35588C39.9936 3.096 41.7645 4.03761 43.0868 5.21001C44.4063 6.37984 45.5 7.99277 45.5 10V20V30V40C45.5 42.0072 44.4063 43.6202 43.0868 44.79C41.7645 45.9624 39.9936 46.904 38.0199 47.6441C34.0542 49.1313 28.7433 50 23 50C17.2567 50 11.9458 49.1313 7.98006 47.6441C6.0064 46.904 4.23554 45.9624 2.91318 44.79C1.59373 43.6202 0.5 42.0072 0.5 40V30V20V10ZM5.5 20C5.5 20.0638 5.52556 20.4239 6.23022 21.0487C6.93196 21.6709 8.09004 22.3454 9.73567 22.9625C13.0085 24.1898 17.6976 25 23 25C28.3024 25 32.9915 24.1898 36.2643 22.9625C37.91 22.3454 39.068 21.6709 39.7698 21.0487C40.4744 20.4239 40.5 20.0638 40.5 20V16.5405C39.7272 16.9495 38.8935 17.3166 38.0199 17.6441C34.0542 19.1313 28.7433 20 23 20C17.2567 20 11.9458 19.1313 7.98006 17.6441C7.10655 17.3166 6.27276 16.9495 5.5 16.5405V20ZM5.5 26.5405V30C5.5 30.0638 5.52556 30.4239 6.23022 31.0487C6.93196 31.6709 8.09004 32.3454 9.73567 32.9625C13.0085 34.1898 17.6976 35 23 35C28.3024 35 32.9915 34.1898 36.2643 32.9625C37.91 32.3454 39.068 31.6709 39.7698 31.0487C40.4744 30.4239 40.5 30.0638 40.5 30V26.5405C39.7272 26.9495 38.8935 27.3166 38.0199 27.6441C34.0542 29.1313 28.7433 30 23 30C17.2567 30 11.9458 29.1313 7.98006 27.6441C7.10655 27.3166 6.27276 26.9495 5.5 26.5405ZM5.5 36.5405V40C5.5 40.0638 5.52556 40.4239 6.23022 41.0487C6.93196 41.6709 8.09004 42.3454 9.73567 42.9625C13.0085 44.1898 17.6976 45 23 45C28.3024 45 32.9915 44.1898 36.2643 42.9625C37.91 42.3454 39.068 41.6709 39.7698 41.0487C40.4744 40.4239 40.5 40.0638 40.5 40V36.5405C39.7272 36.9495 38.8935 37.3166 38.0199 37.6441C34.0542 39.1313 28.7433 40 23 40C17.2567 40 11.9458 39.1313 7.98006 37.6441C7.10655 37.3166 6.27276 36.9495 5.5 36.5405Z" fill="url(#paint0_linear_218_673)"/>
<defs>
<linearGradient id="paint0_linear_218_673" x1="12.5" y1="6.66667" x2="57.2855" y2="105.016" gradientUnits="userSpaceOnUse">
<stop stop-color="#FEB700"/>
<stop offset="1" stop-color="#FE0000"/>
</linearGradient>
</defs>
</svg>
