<svg width="50" height="46" viewBox="0 0 50 46" fill="none" xmlns="http://www.w3.org/2000/svg">
<path d="M16.7094 0.628292C17.2226 0.457236 17.7774 0.457236 18.2906 0.628292L32.5 5.36477L43.4189 1.72515C46.6565 0.645929 50 3.05578 50 6.46856V36.1981C50 38.3503 48.6229 40.261 46.5811 40.9415L33.2906 45.3717C32.7774 45.5428 32.2226 45.5428 31.7094 45.3717L17.5 40.6352L6.58114 44.2749C3.34348 45.3541 0 42.9442 0 39.5314V9.8019C0 7.64975 1.37715 5.73905 3.41886 5.05848L16.7094 0.628292ZM20 36.1981L30 39.5314V9.8019L20 6.46856V36.1981ZM15 6.46856L5 9.8019V39.5314L15 36.1981V6.46856ZM35 9.8019V39.5314L45 36.1981V6.46856L35 9.8019Z" fill="url(#paint0_linear_218_767)"/>
<defs>
<linearGradient id="paint0_linear_218_767" x1="13.3333" y1="6.5" x2="48.0314" y2="100.57" gradientUnits="userSpaceOnUse">
<stop stop-color="#FEB700"/>
<stop offset="1" stop-color="#FE0000"/>
</linearGradient>
</defs>
</svg>
