<svg width="203" height="37" viewBox="0 0 203 37" fill="none" xmlns="http://www.w3.org/2000/svg">
<path d="M13.236 6.6V7.592C13.236 7.93333 13.172 8.168 13.044 8.296C12.9373 8.40267 12.7133 8.456 12.372 8.456H8.532V28.136C8.532 28.4773 8.468 28.712 8.34 28.84C8.23333 28.9467 8.00933 29 7.668 29H5.972V8.456H1.332V7.464C1.332 7.12267 1.38533 6.89867 1.492 6.792C1.62 6.664 1.85467 6.6 2.196 6.6H13.236Z" fill="white"/>
<path d="M52.358 17.736C53.0193 17.736 53.4353 17.5973 53.606 17.32C53.7767 17.0427 53.862 16.5733 53.862 15.912V10.28C53.862 9.61867 53.7767 9.14933 53.606 8.872C53.4353 8.59467 53.0193 8.456 52.358 8.456H48.614V28.136C48.614 28.4773 48.55 28.712 48.422 28.84C48.3153 28.9467 48.0913 29 47.75 29H46.054V7.464C46.054 7.12267 46.1073 6.89867 46.214 6.792C46.342 6.664 46.5767 6.6 46.918 6.6H53.382C54.4913 6.6 55.27 6.83467 55.718 7.304C56.1873 7.752 56.422 8.53067 56.422 9.64V16.552C56.422 17.6613 56.1873 18.4507 55.718 18.92C55.27 19.368 54.4913 19.592 53.382 19.592H50.694C50.3527 19.592 50.1287 19.5387 50.022 19.432C49.9367 19.304 49.894 19.0693 49.894 18.728V17.736H52.358Z" fill="white"/>
<path d="M73.02 18.84C73.7133 18.84 74.2 18.9867 74.48 19.28C74.7733 19.56 74.92 20.0467 74.92 20.74V27.1C74.92 27.7933 74.7733 28.2867 74.48 28.58C74.2 28.86 73.7133 29 73.02 29H71.12C70.7333 29 70.4533 28.9067 70.28 28.72C70.12 28.52 70 28.2267 69.92 27.84V28.46C69.92 28.6733 69.88 28.82 69.8 28.9C69.7333 28.9667 69.5933 29 69.38 29H68.32V15.54C68.32 15.3267 68.3533 15.1867 68.42 15.12C68.5 15.04 68.6467 15 68.86 15H69.92V27.84H72.38C72.7933 27.84 73.0533 27.7533 73.16 27.58C73.2667 27.4067 73.32 27.1133 73.32 26.7V21.14C73.32 20.7267 73.2667 20.4333 73.16 20.26C73.0533 20.0867 72.7933 20 72.38 20H70.72V19.38C70.72 19.1667 70.7467 19.0267 70.8 18.96C70.8667 18.88 71.0067 18.84 71.22 18.84H73.02ZM84.0997 18.84L80.3197 32.48C80.253 32.6933 80.173 32.8333 80.0797 32.9C79.9997 32.98 79.853 33.02 79.6397 33.02H78.7597L79.8197 29H79.2997L76.8397 19.38C76.7597 19.02 76.893 18.84 77.2397 18.84H78.1397L79.8397 25.3L80.2397 27.72H80.3597L80.8597 25.32L82.5997 19.38C82.653 19.1667 82.7264 19.0267 82.8197 18.96C82.913 18.88 83.0664 18.84 83.2797 18.84H84.0997ZM91.4825 28.46C91.4825 28.6733 91.4425 28.82 91.3625 28.9C91.2958 28.9667 91.1558 29 90.9425 29H89.8825V15.54C89.8825 15.3267 89.9158 15.1867 89.9825 15.12C90.0625 15.04 90.2092 15 90.4225 15H91.4825V28.46ZM92.0825 22.86L94.2825 19.38C94.3892 19.1933 94.4892 19.06 94.5825 18.98C94.6758 18.8867 94.8292 18.84 95.0425 18.84H96.3025L93.2625 23.36L96.5025 29H95.1225C94.9092 29 94.7558 28.96 94.6625 28.88C94.5692 28.7867 94.4692 28.6467 94.3625 28.46L92.0825 24.14V22.86ZM103.202 29V19.38C103.202 19.1667 103.235 19.0267 103.302 18.96C103.382 18.88 103.529 18.84 103.742 18.84H104.802V28.46C104.802 28.6733 104.762 28.82 104.682 28.9C104.615 28.9667 104.475 29 104.262 29H103.202ZM98.2019 19.38C98.2019 19.1667 98.2352 19.0267 98.3019 18.96C98.3819 18.88 98.5285 18.84 98.7419 18.84H99.8019V26.7C99.8019 27.1133 99.8552 27.4067 99.9619 27.58C100.069 27.7533 100.329 27.84 100.742 27.84H102.402V28.46C102.402 28.6733 102.369 28.82 102.302 28.9C102.249 28.9667 102.115 29 101.902 29H100.102C99.4085 29 98.9152 28.86 98.6219 28.58C98.3419 28.2867 98.2019 27.7933 98.2019 27.1V19.38ZM109.122 15V28.46C109.122 28.6733 109.082 28.82 109.002 28.9C108.935 28.9667 108.795 29 108.582 29H107.522V15.54C107.522 15.3267 107.555 15.1867 107.622 15.12C107.702 15.04 107.848 15 108.062 15H109.122ZM117.196 27.84V28.46C117.196 28.6733 117.162 28.82 117.096 28.9C117.042 28.9667 116.909 29 116.696 29H113.676C112.982 29 112.489 28.86 112.196 28.58C111.916 28.2867 111.776 27.7933 111.776 27.1V20.74C111.776 20.0467 111.916 19.56 112.196 19.28C112.489 18.9867 112.982 18.84 113.676 18.84H115.876C116.569 18.84 117.056 18.9867 117.336 19.28C117.629 19.56 117.776 20.0467 117.776 20.74V22.98C117.776 23.6733 117.629 24.1667 117.336 24.46C117.056 24.74 116.569 24.88 115.876 24.88H114.676C114.462 24.88 114.322 24.8467 114.256 24.78C114.202 24.7 114.176 24.5533 114.176 24.34V23.72H115.336C115.749 23.72 116.009 23.6333 116.116 23.46C116.222 23.2867 116.276 22.9933 116.276 22.58V21.04C116.276 20.6267 116.209 20.3533 116.076 20.22C115.942 20.0733 115.669 20 115.256 20H114.396C113.956 20 113.676 20.08 113.556 20.24C113.436 20.3867 113.376 20.6867 113.376 21.14V26.7C113.376 27.1133 113.429 27.4067 113.536 27.58C113.642 27.7533 113.902 27.84 114.316 27.84H117.196ZM121.617 24.5C121.271 24.5 120.984 24.4733 120.757 24.42C120.544 24.3667 120.371 24.2733 120.237 24.14C120.117 23.9933 120.031 23.8067 119.977 23.58C119.937 23.3533 119.917 23.0667 119.917 22.72V20.74C119.917 20.0467 120.057 19.56 120.337 19.28C120.631 18.9867 121.124 18.84 121.817 18.84H124.497C124.711 18.84 124.844 18.88 124.897 18.96C124.964 19.0267 124.997 19.1667 124.997 19.38V20H122.357C121.944 20 121.684 20.0867 121.577 20.26C121.471 20.4333 121.417 20.7267 121.417 21.14V22.2C121.417 22.44 121.424 22.64 121.437 22.8C121.464 22.9467 121.511 23.06 121.577 23.14C121.644 23.22 121.737 23.2733 121.857 23.3C121.991 23.3267 122.157 23.34 122.357 23.34H123.497C123.844 23.34 124.124 23.3667 124.337 23.42C124.564 23.4733 124.737 23.5733 124.857 23.72C124.991 23.8533 125.077 24.0333 125.117 24.26C125.171 24.4867 125.197 24.7733 125.197 25.12V27.1C125.197 27.7933 125.051 28.2867 124.757 28.58C124.477 28.86 123.991 29 123.297 29H120.417C120.204 29 120.064 28.9667 119.997 28.9C119.944 28.82 119.917 28.6733 119.917 28.46V27.84H122.757C123.171 27.84 123.431 27.7533 123.537 27.58C123.644 27.4067 123.697 27.1133 123.697 26.7V25.64C123.697 25.2267 123.644 24.9333 123.537 24.76C123.431 24.5867 123.171 24.5 122.757 24.5H121.617ZM134.197 28.46C134.197 28.6733 134.157 28.82 134.077 28.9C134.011 28.9667 133.871 29 133.657 29H132.597V21.14C132.597 20.7267 132.544 20.4333 132.437 20.26C132.331 20.0867 132.071 20 131.657 20H129.197V28.46C129.197 28.6733 129.157 28.82 129.077 28.9C129.011 28.9667 128.871 29 128.657 29H127.597V15.54C127.597 15.3267 127.631 15.1867 127.697 15.12C127.777 15.04 127.924 15 128.137 15H129.197V20C129.277 19.6133 129.397 19.3267 129.557 19.14C129.731 18.94 130.011 18.84 130.397 18.84H132.297C132.991 18.84 133.477 18.9867 133.757 19.28C134.051 19.56 134.197 20.0467 134.197 20.74V28.46ZM136.737 20.74C136.737 20.0467 136.877 19.56 137.157 19.28C137.45 18.9867 137.943 18.84 138.637 18.84H141.437C142.13 18.84 142.617 18.9867 142.897 19.28C143.19 19.56 143.337 20.0467 143.337 20.74V27.1C143.337 27.7933 143.19 28.2867 142.897 28.58C142.617 28.86 142.13 29 141.437 29H138.637C137.943 29 137.45 28.86 137.157 28.58C136.877 28.2867 136.737 27.7933 136.737 27.1V20.74ZM139.277 20C138.863 20 138.603 20.0867 138.497 20.26C138.39 20.4333 138.337 20.7267 138.337 21.14V26.7C138.337 27.1133 138.39 27.4067 138.497 27.58C138.603 27.7533 138.863 27.84 139.277 27.84H140.797C141.21 27.84 141.47 27.7533 141.577 27.58C141.683 27.4067 141.737 27.1133 141.737 26.7V21.14C141.737 20.7267 141.683 20.4333 141.577 20.26C141.47 20.0867 141.21 20 140.797 20H139.277ZM149.818 28.46C149.764 28.6733 149.691 28.82 149.598 28.9C149.518 28.9667 149.371 29 149.158 29H147.958L145.318 19.38C145.238 19.02 145.371 18.84 145.718 18.84H146.618L148.378 25.14L148.818 27.52H148.938L149.358 25.14L150.998 19.38C151.051 19.1667 151.124 19.0267 151.218 18.96C151.311 18.88 151.464 18.84 151.678 18.84H152.498L149.818 28.46ZM155.783 29H154.563C154.349 29 154.203 28.9667 154.123 28.9C154.056 28.82 154.023 28.6733 154.023 28.46V27.4H155.243C155.456 27.4 155.596 27.44 155.663 27.52C155.743 27.5867 155.783 27.7267 155.783 27.94V29ZM159.86 24.5C159.513 24.5 159.226 24.4733 159 24.42C158.786 24.3667 158.613 24.2733 158.48 24.14C158.36 23.9933 158.273 23.8067 158.22 23.58C158.18 23.3533 158.16 23.0667 158.16 22.72V20.74C158.16 20.0467 158.3 19.56 158.58 19.28C158.873 18.9867 159.366 18.84 160.06 18.84H162.74C162.953 18.84 163.086 18.88 163.14 18.96C163.206 19.0267 163.24 19.1667 163.24 19.38V20H160.6C160.186 20 159.926 20.0867 159.82 20.26C159.713 20.4333 159.66 20.7267 159.66 21.14V22.2C159.66 22.44 159.666 22.64 159.68 22.8C159.706 22.9467 159.753 23.06 159.82 23.14C159.886 23.22 159.98 23.2733 160.1 23.3C160.233 23.3267 160.4 23.34 160.6 23.34H161.74C162.086 23.34 162.366 23.3667 162.58 23.42C162.806 23.4733 162.98 23.5733 163.1 23.72C163.233 23.8533 163.32 24.0333 163.36 24.26C163.413 24.4867 163.44 24.7733 163.44 25.12V27.1C163.44 27.7933 163.293 28.2867 163 28.58C162.72 28.86 162.233 29 161.54 29H158.66C158.446 29 158.306 28.9667 158.24 28.9C158.186 28.82 158.16 28.6733 158.16 28.46V27.84H161C161.413 27.84 161.673 27.7533 161.78 27.58C161.886 27.4067 161.94 27.1133 161.94 26.7V25.64C161.94 25.2267 161.886 24.9333 161.78 24.76C161.673 24.5867 161.413 24.5 161 24.5H159.86ZM169.4 18.84C169.613 18.84 169.746 18.88 169.8 18.96C169.866 19.0267 169.9 19.1667 169.9 19.38V20H167.44V26.7C167.44 27.1133 167.493 27.4067 167.6 27.58C167.706 27.7533 167.966 27.84 168.38 27.84H170.12C170.093 28.2267 170.013 28.52 169.88 28.72C169.76 28.9067 169.506 29 169.12 29H167.74C167.046 29 166.553 28.86 166.26 28.58C165.98 28.2867 165.84 27.7933 165.84 27.1V17.06C165.84 16.8467 165.873 16.7067 165.94 16.64C166.02 16.56 166.166 16.52 166.38 16.52H167.44V18.84H169.4ZM176.874 29V19.38C176.874 19.1667 176.907 19.0267 176.974 18.96C177.054 18.88 177.2 18.84 177.414 18.84H178.474V28.46C178.474 28.6733 178.434 28.82 178.354 28.9C178.287 28.9667 178.147 29 177.934 29H176.874ZM171.874 19.38C171.874 19.1667 171.907 19.0267 171.974 18.96C172.054 18.88 172.2 18.84 172.414 18.84H173.474V26.7C173.474 27.1133 173.527 27.4067 173.634 27.58C173.74 27.7533 174 27.84 174.414 27.84H176.074V28.46C176.074 28.6733 176.04 28.82 175.974 28.9C175.92 28.9667 175.787 29 175.574 29H173.774C173.08 29 172.587 28.86 172.294 28.58C172.014 28.2867 171.874 27.7933 171.874 27.1V19.38ZM187.633 15V28.46C187.633 28.6733 187.593 28.82 187.513 28.9C187.447 28.9667 187.307 29 187.093 29H186.033V15.54C186.033 15.3267 186.067 15.1867 186.133 15.12C186.213 15.04 186.36 15 186.573 15H187.633ZM182.933 29C182.24 29 181.747 28.86 181.453 28.58C181.173 28.2867 181.033 27.7933 181.033 27.1V20.74C181.033 20.0467 181.173 19.56 181.453 19.28C181.747 18.9867 182.24 18.84 182.933 18.84H184.833C185.22 18.84 185.493 18.94 185.653 19.14C185.827 19.3267 185.953 19.6133 186.033 20H183.573C183.16 20 182.9 20.0867 182.793 20.26C182.687 20.4333 182.633 20.7267 182.633 21.14V26.7C182.633 27.1133 182.687 27.4067 182.793 27.58C182.9 27.7533 183.16 27.84 183.573 27.84H185.233V28.46C185.233 28.6733 185.2 28.82 185.133 28.9C185.08 28.9667 184.947 29 184.733 29H182.933ZM190.154 16.7C190.154 16.4867 190.187 16.3467 190.254 16.28C190.334 16.2 190.48 16.16 190.694 16.16H191.914V17.22C191.914 17.4333 191.874 17.58 191.794 17.66C191.727 17.7267 191.587 17.76 191.374 17.76H190.154V16.7ZM191.834 18.84V28.46C191.834 28.6733 191.794 28.82 191.714 28.9C191.647 28.9667 191.507 29 191.294 29H190.234V19.38C190.234 19.1667 190.267 19.0267 190.334 18.96C190.414 18.88 190.56 18.84 190.774 18.84H191.834ZM194.393 20.74C194.393 20.0467 194.533 19.56 194.813 19.28C195.106 18.9867 195.599 18.84 196.293 18.84H199.093C199.786 18.84 200.273 18.9867 200.553 19.28C200.846 19.56 200.993 20.0467 200.993 20.74V27.1C200.993 27.7933 200.846 28.2867 200.553 28.58C200.273 28.86 199.786 29 199.093 29H196.293C195.599 29 195.106 28.86 194.813 28.58C194.533 28.2867 194.393 27.7933 194.393 27.1V20.74ZM196.933 20C196.519 20 196.259 20.0867 196.153 20.26C196.046 20.4333 195.993 20.7267 195.993 21.14V26.7C195.993 27.1133 196.046 27.4067 196.153 27.58C196.259 27.7533 196.519 27.84 196.933 27.84H198.453C198.866 27.84 199.126 27.7533 199.233 27.58C199.339 27.4067 199.393 27.1133 199.393 26.7V21.14C199.393 20.7267 199.339 20.4333 199.233 20.26C199.126 20.0867 198.866 20 198.453 20H196.933Z" fill="#717171"/>
<circle cx="28.5" cy="17.5" r="10.5" stroke="white" stroke-width="2"/>
<circle cx="28.5" cy="17.5" r="7.5" fill="url(#paint0_linear_174_4358)"/>
<defs>
<linearGradient id="paint0_linear_174_4358" x1="25" y1="12" x2="37.5" y2="42.5" gradientUnits="userSpaceOnUse">
<stop stop-color="#FEB700"/>
<stop offset="1" stop-color="#FE0000"/>
</linearGradient>
</defs>
</svg>
