<svg width="390" height="390" viewBox="0 0 390 390" fill="none" xmlns="http://www.w3.org/2000/svg">
<path d="M156 39C112.922 39 78 73.9218 78 117C78 160.078 112.922 195 156 195C199.078 195 234 160.078 234 117C234 73.9218 199.078 39 156 39ZM39 117C39 52.3827 91.3827 0 156 0C220.617 0 273 52.3827 273 117C273 181.617 220.617 234 156 234C91.3827 234 39 181.617 39 117ZM289.154 34.2685C296.77 26.6533 309.116 26.6533 316.732 34.2685C362.423 79.9598 362.423 154.04 316.732 199.731C309.116 207.347 296.77 207.347 289.154 199.731C281.539 192.116 281.539 179.77 289.154 172.154C319.615 141.693 319.615 92.3066 289.154 61.8457C281.539 54.2304 281.539 41.8837 289.154 34.2685ZM302.832 287.771C305.444 277.323 316.031 270.97 326.479 273.582C352.374 280.056 368.764 296.613 378.191 315.467C387.313 333.71 390 354.064 390 370.5C390 381.27 381.27 390 370.5 390C359.73 390 351 381.27 351 370.5C351 357.686 348.812 343.915 343.309 332.908C338.111 322.512 330.126 314.694 317.021 311.418C306.573 308.806 300.22 298.219 302.832 287.771ZM87.75 312C63.1906 312 39 335.664 39 370.5C39 381.27 30.2696 390 19.5 390C8.73045 390 0 381.27 0 370.5C0 319.179 36.9226 273 87.75 273H224.25C275.077 273 312 319.18 312 370.5C312 381.27 303.27 390 292.5 390C281.73 390 273 381.27 273 370.5C273 335.664 248.809 312 224.25 312H87.75Z" fill="#717171"/>
</svg>
