<svg width="390" height="352" viewBox="0 0 390 352" fill="none" xmlns="http://www.w3.org/2000/svg">
<path d="M130.334 1.50068C134.336 0.166441 138.664 0.166441 142.666 1.50068L253.5 38.4452L338.667 10.0562C363.921 1.63825 390 20.4351 390 47.0548V278.945C390 295.732 379.258 310.635 363.333 315.944L259.666 350.499C255.664 351.834 251.336 351.834 247.334 350.499L136.5 313.555L51.3329 341.944C26.0792 350.362 0 331.565 0 304.945V73.0548C0 56.268 10.7418 41.3646 26.6671 36.0562L130.334 1.50068ZM156 278.945L234 304.945V73.0548L156 47.0548V278.945ZM117 47.0548L39 73.0548V304.945L117 278.945V47.0548ZM273 73.0548V304.945L351 278.945V47.0548L273 73.0548Z" fill="#7171712c"/>
</svg>
